<svg width="216" height="216" viewBox="0 0 216 216" fill="none" xmlns="http://www.w3.org/2000/svg">
<path d="M135 189H117V171H135V189ZM117 126H99V171H117V126ZM189 108H171V144H189V108ZM171 90H153V108H171V90ZM63 108H45V126H63V108ZM45 90H27V108H45V90ZM108 45H126V27H108V45ZM40.5 40.5V67.5H67.5V40.5H40.5ZM81 81H27V27H81V81ZM40.5 148.5V175.5H67.5V148.5H40.5ZM81 189H27V135H81V189ZM148.5 40.5V67.5H175.5V40.5H148.5ZM189 81H135V27H189V81ZM171 171V144H135V162H153V189H189V171H171ZM153 108H117V126H153V108ZM117 90H63V108H81V126H99V108H117V90ZM126 81V63H108V45H90V81H126ZM60.75 47.25H47.25V60.75H60.75V47.25ZM60.75 155.25H47.25V168.75H60.75V155.25ZM168.75 47.25H155.25V60.75H168.75V47.25Z" fill="black"/>
</svg>
