<svg width="40" height="40" viewBox="0 0 40 40" fill="none" xmlns="http://www.w3.org/2000/svg">
<path d="M19.9999 28.333C20.4721 28.333 20.8683 28.173 21.1883 27.853C21.5071 27.5341 21.6666 27.1386 21.6666 26.6663V21.6663H26.7083C27.1805 21.6663 27.5694 21.5063 27.8749 21.1863C28.1805 20.8675 28.3333 20.4719 28.3333 19.9997C28.3333 19.5275 28.1733 19.1313 27.8533 18.8113C27.5344 18.4925 27.1388 18.333 26.6666 18.333H21.6666V13.2913C21.6666 12.8191 21.5071 12.4302 21.1883 12.1247C20.8683 11.8191 20.4721 11.6663 19.9999 11.6663C19.5277 11.6663 19.1321 11.8258 18.8133 12.1447C18.4933 12.4647 18.3333 12.8608 18.3333 13.333V18.333H13.2916C12.8194 18.333 12.4305 18.4925 12.1249 18.8113C11.8194 19.1313 11.6666 19.5275 11.6666 19.9997C11.6666 20.4719 11.826 20.8675 12.1449 21.1863C12.4649 21.5063 12.861 21.6663 13.3333 21.6663H18.3333V26.708C18.3333 27.1802 18.4933 27.5691 18.8133 27.8747C19.1321 28.1802 19.5277 28.333 19.9999 28.333ZM19.9999 36.6663C17.6944 36.6663 15.5277 36.2286 13.4999 35.353C11.4721 34.4786 9.70825 33.2913 8.20825 31.7913C6.70825 30.2913 5.52103 28.5275 4.64659 26.4997C3.77103 24.4719 3.33325 22.3052 3.33325 19.9997C3.33325 17.6941 3.77103 15.5275 4.64659 13.4997C5.52103 11.4719 6.70825 9.70801 8.20825 8.20801C9.70825 6.70801 11.4721 5.52023 13.4999 4.64467C15.5277 3.77023 17.6944 3.33301 19.9999 3.33301C22.3055 3.33301 24.4721 3.77023 26.4999 4.64467C28.5277 5.52023 30.2916 6.70801 31.7916 8.20801C33.2916 9.70801 34.4788 11.4719 35.3533 13.4997C36.2288 15.5275 36.6666 17.6941 36.6666 19.9997C36.6666 22.3052 36.2288 24.4719 35.3533 26.4997C34.4788 28.5275 33.2916 30.2913 31.7916 31.7913C30.2916 33.2913 28.5277 34.4786 26.4999 35.353C24.4721 36.2286 22.3055 36.6663 19.9999 36.6663Z" fill="white"/>
</svg>
