<svg width="100" height="100" viewBox="0 0 100 100" fill="none" xmlns="http://www.w3.org/2000/svg">
<path d="M9.33337 50.0007C9.33337 27.5779 27.5773 9.33398 50 9.33398C72.4228 9.33398 90.6667 27.5779 90.6667 50.0007C90.6667 72.4234 72.4228 90.6673 50 90.6673C27.5773 90.6673 9.33337 72.4234 9.33337 50.0007ZM15.6667 50.0007C15.6667 68.9321 31.0686 84.334 50 84.334C68.9315 84.334 84.3334 68.9321 84.3334 50.0007C84.3334 31.0692 68.9315 15.6673 50 15.6673C31.0686 15.6673 15.6667 31.0692 15.6667 50.0007Z" fill="#FFC535" stroke="white" stroke-width="2"/>
<path d="M47.675 52.125C49.6 48.65 53.3 46.6 55.45 43.525C57.725 40.3 56.45 34.275 50 34.275C45.775 34.275 43.7 37.475 42.825 40.125L36.35 37.4C38.125 32.075 42.95 27.5 49.975 27.5C55.85 27.5 59.875 30.175 61.925 33.525C63.675 36.4 64.7 41.775 62 45.775C59 50.2 56.125 51.55 54.575 54.4C53.95 55.55 53.7 56.3 53.7 60H46.475C46.45 58.05 46.15 54.875 47.675 52.125ZM55 70C55 72.75 52.75 75 50 75C47.25 75 45 72.75 45 70C45 67.25 47.25 65 50 65C52.75 65 55 67.25 55 70Z" fill="#FFC535"/>
</svg>
