<svg width="100" height="100" viewBox="0 0 100 100" fill="none" xmlns="http://www.w3.org/2000/svg">
<path d="M9.33337 50.0007C9.33337 27.5779 27.5773 9.33398 50 9.33398C72.4228 9.33398 90.6667 27.5779 90.6667 50.0007C90.6667 72.4234 72.4228 90.6673 50 90.6673C27.5773 90.6673 9.33337 72.4234 9.33337 50.0007ZM15.6667 50.0007C15.6667 68.9321 31.0686 84.334 50 84.334C68.9315 84.334 84.3334 68.9321 84.3334 50.0007C84.3334 31.0692 68.9315 15.6673 50 15.6673C31.0686 15.6673 15.6667 31.0692 15.6667 50.0007Z" fill="#45DD91" stroke="white" stroke-width="2"/>
<path d="M44.1667 54.6667L61.375 37.4583C61.9098 36.9236 62.5903 36.6562 63.4167 36.6562C64.2431 36.6562 64.9236 36.9236 65.4584 37.4583C65.9931 37.9931 66.2605 38.6736 66.2605 39.5C66.2605 40.3264 65.9931 41.0069 65.4584 41.5417L46.2084 60.7917C45.625 61.375 44.9445 61.6667 44.1667 61.6667C43.3889 61.6667 42.7084 61.375 42.125 60.7917L34.5417 53.2083C34.007 52.6736 33.7396 51.9931 33.7396 51.1667C33.7396 50.3403 34.007 49.6597 34.5417 49.125C35.0764 48.5903 35.757 48.3229 36.5834 48.3229C37.4098 48.3229 38.0903 48.5903 38.625 49.125L44.1667 54.6667Z" fill="#45DD91"/>
</svg>
