<svg width="35" height="35" viewBox="0 0 35 35" fill="none" xmlns="http://www.w3.org/2000/svg">
<path d="M9.45833 27.7083C9.45833 29.3125 10.7708 30.625 12.375 30.625H24.0417C25.6458 30.625 26.9583 29.3125 26.9583 27.7083V13.125C26.9583 11.5208 25.6458 10.2083 24.0417 10.2083H12.375C10.7708 10.2083 9.45833 11.5208 9.45833 13.125V27.7083ZM26.9583 5.83333H23.3125L22.2771 4.79792C22.0146 4.53542 21.6354 4.375 21.2562 4.375H15.1604C14.7812 4.375 14.4021 4.53542 14.1396 4.79792L13.1042 5.83333H9.45833C8.65625 5.83333 8 6.48958 8 7.29167C8 8.09375 8.65625 8.75 9.45833 8.75H26.9583C27.7604 8.75 28.4167 8.09375 28.4167 7.29167C28.4167 6.48958 27.7604 5.83333 26.9583 5.83333Z" fill="#FF2622"/>
</svg>
