<svg width="230" height="230" viewBox="0 0 230 230" fill="none" xmlns="http://www.w3.org/2000/svg">
<path d="M13.1428 0C9.65711 0 6.31419 1.38468 3.84944 3.84941C1.38468 6.31415 0 9.65705 0 13.1427V65.7135H65.714V0H13.1428ZM49.2855 49.2852H16.4285V16.4284H49.2855V49.2852Z" fill="white"/>
<path d="M0 216.849C0 220.335 1.38468 223.678 3.84944 226.142C6.31419 228.607 9.65711 229.992 13.1428 229.992H65.714V164.278H0V216.849ZM16.4285 180.707H49.2855V213.563H16.4285V180.707Z" fill="white"/>
<path d="M164.283 229.992H216.854C220.34 229.992 223.683 228.607 226.148 226.142C228.612 223.678 229.997 220.335 229.997 216.849V164.278H164.283V229.992ZM180.712 180.707H213.569V213.563H180.712V180.707Z" fill="white"/>
<path d="M216.854 0H164.283V65.7135H229.997V13.1427C229.997 9.65705 228.612 6.31415 226.148 3.84941C223.683 1.38468 220.34 0 216.854 0ZM213.569 49.2852H180.712V16.4284H213.569V49.2852Z" fill="white"/>
<path d="M131.425 49.2829V32.8545H98.5684V65.7113H114.997V49.2829H131.425Z" fill="white"/>
<path d="M65.7148 65.7158H82.1433V82.1442H65.7148V65.7158Z" fill="white"/>
<path d="M82.1445 82.1426H115.002V98.571H82.1445V82.1426Z" fill="white"/>
<path d="M131.43 16.4284V32.8568H147.859V0H82.1445V32.8568H98.573V16.4284H131.43Z" fill="white"/>
<path d="M0 82.1426H16.4285V114.999H0V82.1426Z" fill="white"/>
<path d="M65.714 98.571V114.999H49.2855V82.1426H32.857V114.999H16.4285V131.428H0V147.856H32.857V131.428H49.2855V147.856H65.714V131.428H82.1425V98.571H65.714Z" fill="white"/>
<path d="M131.428 98.5703H147.857V114.999H164.285V98.5703H180.714V82.1419H147.857V49.2852H131.428V65.7135H115V82.1419H131.428V98.5703Z" fill="white"/>
<path d="M115.002 213.572H82.1445V230H147.859V213.572H131.43V197.144H115.002V213.572Z" fill="white"/>
<path d="M147.854 131.423V114.995H131.425V98.5664H114.997V114.995H98.5684V131.423H114.997V147.852H131.425V131.423H147.854Z" fill="white"/>
<path d="M213.572 131.428H230.001V147.856H213.572V131.428Z" fill="white"/>
<path d="M147.855 131.428H197.141V147.856H147.855V131.428Z" fill="white"/>
<path d="M213.57 82.1426H197.141V98.571H180.713V114.999H197.141V131.428H213.57V114.999H229.998V98.571H213.57V82.1426Z" fill="white"/>
<path d="M131.428 147.854H147.856V197.14H131.428V147.854Z" fill="white"/>
<path d="M82.1445 197.141H98.573V180.713H115.002V164.285H98.573V131.428H82.1445V197.141Z" fill="white"/>
</svg>
