<svg width="35" height="36" viewBox="0 0 35 36" fill="none" xmlns="http://www.w3.org/2000/svg">
<path d="M22.6042 21.202H21.4521L21.0437 20.8082C21.9551 19.7494 22.6212 18.5023 22.9943 17.156C23.3675 15.8097 23.4384 14.3976 23.2021 13.0207C22.5167 8.96655 19.1333 5.72905 15.05 5.23322C13.6144 5.05161 12.1564 5.2008 10.7873 5.66939C9.41829 6.13798 8.1746 6.91354 7.15141 7.93672C6.12823 8.95991 5.35267 10.2036 4.88408 11.5726C4.41549 12.9417 4.2663 14.3997 4.44791 15.8353C4.94374 19.9186 8.18124 23.302 12.2354 23.9874C13.6123 24.2237 15.0244 24.1528 16.3707 23.7796C17.717 23.4065 18.9641 22.7404 20.0229 21.8291L20.4167 22.2374V23.3895L26.6146 29.5874C27.2125 30.1853 28.1896 30.1853 28.7875 29.5874C29.3854 28.9895 29.3854 28.0124 28.7875 27.4145L22.6042 21.202ZM13.8542 21.202C10.2229 21.202 7.29166 18.2707 7.29166 14.6395C7.29166 11.0082 10.2229 8.07697 13.8542 8.07697C17.4854 8.07697 20.4167 11.0082 20.4167 14.6395C20.4167 18.2707 17.4854 21.202 13.8542 21.202Z" fill="white"/>
</svg>
