<svg width="35" height="35" viewBox="0 0 35 35" fill="none" xmlns="http://www.w3.org/2000/svg">
<path d="M28.5833 30.625L19.3958 21.4375C18.6667 22.0208 17.8281 22.4826 16.8802 22.8229C15.9323 23.1632 14.9236 23.3333 13.8542 23.3333C11.2049 23.3333 8.96292 22.4156 7.12833 20.58C5.29375 18.7444 4.37597 16.5025 4.375 13.8542C4.375 11.2049 5.29278 8.96292 7.12833 7.12833C8.96389 5.29375 11.2058 4.37597 13.8542 4.375C16.5035 4.375 18.7454 5.29278 20.58 7.12833C22.4146 8.96389 23.3324 11.2058 23.3333 13.8542C23.3333 14.9236 23.1632 15.9323 22.8229 16.8802C22.4826 17.8281 22.0208 18.6667 21.4375 19.3958L30.625 28.5833L28.5833 30.625ZM13.8542 20.4167C15.6771 20.4167 17.2268 19.7784 18.5033 18.5019C19.7799 17.2253 20.4176 15.6761 20.4167 13.8542C20.4167 12.0312 19.7784 10.4815 18.5019 9.205C17.2253 7.92847 15.6761 7.29069 13.8542 7.29167C12.0312 7.29167 10.4815 7.92993 9.205 9.20646C7.92847 10.483 7.29069 12.0322 7.29167 13.8542C7.29167 15.6771 7.92993 17.2268 9.20646 18.5033C10.483 19.7799 12.0322 20.4176 13.8542 20.4167Z" fill="#FFC535"/>
</svg>
