<svg width="20" height="20" viewBox="0 0 20 20" fill="none" xmlns="http://www.w3.org/2000/svg">
<g clip-path="url(#clip0_8539_5248)">
<path d="M2.53869 8.44533L1.50136 17.7787L2.82669 17.9267L3.86403 8.592L2.53869 8.44533ZM3.48936 20H16.5107V18.6667H3.48936V20ZM18.4987 17.7787L17.4614 8.44533L16.136 8.592L17.1734 17.9267L18.4987 17.7787ZM15.472 6.66667H4.52803V8H15.4747V6.66667H15.472ZM17.4614 8.44533C17.4069 7.9562 17.174 7.50432 16.8072 7.17616C16.4404 6.848 15.9642 6.6666 15.472 6.66667L15.4734 8C15.6375 7.99999 15.7958 8.06052 15.9181 8.17C16.0404 8.27947 16.118 8.43021 16.136 8.59333L17.4614 8.44533ZM16.5107 20C16.7919 19.9999 17.07 19.9404 17.3267 19.8255C17.5833 19.7106 17.8129 19.5429 18.0004 19.3333C18.1879 19.1237 18.329 18.8768 18.4147 18.609C18.5003 18.3411 18.5298 18.0582 18.4987 17.7787L17.1734 17.9267C17.1839 18.0199 17.1746 18.1131 17.1461 18.2025C17.1176 18.2919 17.0705 18.3743 17.0079 18.4443C16.9454 18.5143 16.8687 18.5703 16.7831 18.6086C16.6974 18.6469 16.6046 18.6667 16.5107 18.6667V20ZM1.50136 17.7787C1.47022 18.0583 1.49843 18.3413 1.58414 18.6093C1.66985 18.8773 1.81113 19.1241 1.99876 19.3338C2.18638 19.5434 2.41612 19.7111 2.67298 19.8259C2.92983 19.9407 3.20802 20 3.48936 20V18.6667C3.39562 18.6667 3.30293 18.6469 3.21735 18.6087C3.13177 18.5704 3.05521 18.5146 2.99267 18.4447C2.93014 18.3749 2.88304 18.2927 2.85444 18.2034C2.82583 18.1141 2.81638 18.0198 2.82669 17.9267L1.50136 17.78V17.7787ZM3.86403 8.592C3.88239 8.42912 3.96011 8.2787 4.08235 8.1695C4.20459 8.06029 4.36411 7.99995 4.52803 8V6.66667C4.0361 6.66692 3.56019 6.84847 3.19368 7.1766C2.82718 7.50473 2.59313 7.95643 2.53869 8.44533L3.86403 8.592ZM6.66669 5.33333V4.66667H5.33336V5.33333H6.66669ZM13.3334 4.66667V5.33333H14.6667V4.66667H13.3334ZM10 1.33333C10.8841 1.33333 11.7319 1.68452 12.357 2.30964C12.9822 2.93477 13.3334 3.78261 13.3334 4.66667H14.6667C14.6667 3.42899 14.175 2.242 13.2999 1.36683C12.4247 0.491665 11.2377 0 10 0V1.33333ZM6.66669 4.66667C6.66669 3.78261 7.01788 2.93477 7.643 2.30964C8.26812 1.68452 9.11597 1.33333 10 1.33333V0C8.76235 0 7.57536 0.491665 6.7002 1.36683C5.82503 2.242 5.33336 3.42899 5.33336 4.66667H6.66669Z" fill="black"/>
</g>
<defs>
<clipPath id="clip0_8539_5248">
<rect width="20" height="20" fill="white"/>
</clipPath>
</defs>
</svg>
