<svg width="20" height="20" viewBox="0 0 20 20" fill="none" xmlns="http://www.w3.org/2000/svg">
<path d="M9.19083 2.11683C9.43837 1.97936 9.71685 1.90723 10 1.90723C10.2831 1.90723 10.5616 1.97936 10.8092 2.11683L17.0717 5.59517C17.2015 5.66737 17.3097 5.77296 17.385 5.90102C17.4603 6.02908 17.5 6.17494 17.5 6.3235V13.186C17.4999 13.4832 17.4204 13.775 17.2696 14.0311C17.1188 14.2872 16.9023 14.4984 16.6425 14.6427L10.8092 17.8843C10.5616 18.0218 10.2831 18.0939 10 18.0939C9.71685 18.0939 9.43837 18.0218 9.19083 17.8843L3.3575 14.6427C3.0978 14.4984 2.88136 14.2874 2.7306 14.0315C2.57983 13.7755 2.50022 13.4839 2.5 13.1868V6.3235C2.49999 6.17494 2.5397 6.02908 2.61501 5.90102C2.69032 5.77296 2.7985 5.66737 2.92833 5.59517L9.19083 2.11683Z" stroke="black" stroke-width="1.66667" stroke-linecap="round" stroke-linejoin="round"/>
<path d="M2.5 5.83398L10 10.0007M10 10.0007L17.5 5.83398M10 10.0007V18.334" stroke="black" stroke-width="1.66667" stroke-linejoin="round"/>
<path d="M6.25 7.91667L13.75 3.75M5 10.2733L7.5 11.6667" stroke="black" stroke-width="1.66667" stroke-linecap="round" stroke-linejoin="round"/>
</svg>
