<svg width="570" height="948" viewBox="0 0 570 948" fill="none" xmlns="http://www.w3.org/2000/svg">
<rect x="8" y="12" width="552" height="922" fill="white"/>
<circle cx="39" cy="10" r="10" fill="#E6F2FF"/>
<circle cx="71.7754" cy="10" r="10" fill="#E6F2FF"/>
<circle cx="104.549" cy="10" r="10" fill="#E6F2FF"/>
<circle cx="137.324" cy="10" r="10" fill="#E6F2FF"/>
<circle cx="170.098" cy="10" r="10" fill="#E6F2FF"/>
<circle cx="202.873" cy="10" r="10" fill="#E6F2FF"/>
<circle cx="235.646" cy="10" r="10" fill="#E6F2FF"/>
<circle cx="268.422" cy="10" r="10" fill="#E6F2FF"/>
<circle cx="301.195" cy="10" r="10" fill="#E6F2FF"/>
<circle cx="333.971" cy="10" r="10" fill="#E6F2FF"/>
<circle cx="366.744" cy="10" r="10" fill="#E6F2FF"/>
<circle cx="399.52" cy="10" r="10" fill="#E6F2FF"/>
<circle cx="432.293" cy="10" r="10" fill="#E6F2FF"/>
<circle cx="465.068" cy="10" r="10" fill="#E6F2FF"/>
<circle cx="497.842" cy="10" r="10" fill="#E6F2FF"/>
<circle cx="530.617" cy="10" r="10" fill="#E6F2FF"/>
<circle cx="39" cy="932.727" r="10" fill="#E6F2FF"/>
<circle cx="71.7754" cy="932.727" r="10" fill="#E6F2FF"/>
<circle cx="104.549" cy="932.727" r="10" fill="#E6F2FF"/>
<circle cx="137.324" cy="932.727" r="10" fill="#E6F2FF"/>
<circle cx="170.098" cy="932.727" r="10" fill="#E6F2FF"/>
<circle cx="202.873" cy="932.727" r="10" fill="#E6F2FF"/>
<circle cx="235.646" cy="932.727" r="10" fill="#E6F2FF"/>
<circle cx="268.422" cy="932.727" r="10" fill="#E6F2FF"/>
<circle cx="301.195" cy="932.727" r="10" fill="#E6F2FF"/>
<circle cx="333.971" cy="932.727" r="10" fill="#E6F2FF"/>
<circle cx="366.744" cy="932.727" r="10" fill="#E6F2FF"/>
<circle cx="399.52" cy="932.727" r="10" fill="#E6F2FF"/>
<circle cx="432.293" cy="932.727" r="10" fill="#E6F2FF"/>
<circle cx="465.068" cy="932.727" r="10" fill="#E6F2FF"/>
<circle cx="497.842" cy="932.727" r="10" fill="#E6F2FF"/>
<circle cx="530.617" cy="932.727" r="10" fill="#E6F2FF"/>
<ellipse cx="10" cy="11.6474" rx="10" ry="11.6474" transform="matrix(1 0 0 -1 0 779.293)" fill="#E6F2FF"/>
<ellipse cx="560" cy="767.647" rx="10" ry="11.6474" fill="#E6F2FF"/>
<path d="M35 767.648H535" stroke="#CCCCCC" stroke-width="1.70326" stroke-linejoin="round" stroke-dasharray="8.52 8.52"/>
</svg>
