<svg width="570" height="590" viewBox="0 0 570 590" fill="none" xmlns="http://www.w3.org/2000/svg">
<rect x="8" y="9" width="552" height="570" fill="white"/>
<circle cx="39" cy="10" r="10" fill="#F8FAFF"/>
<circle cx="71.7754" cy="10" r="10" fill="#F8FAFF"/>
<circle cx="104.549" cy="10" r="10" fill="#F8FAFF"/>
<circle cx="137.324" cy="10" r="10" fill="#F8FAFF"/>
<circle cx="170.098" cy="10" r="10" fill="#F8FAFF"/>
<circle cx="202.873" cy="10" r="10" fill="#F8FAFF"/>
<circle cx="235.646" cy="10" r="10" fill="#F8FAFF"/>
<circle cx="268.422" cy="10" r="10" fill="#F8FAFF"/>
<circle cx="301.195" cy="10" r="10" fill="#F8FAFF"/>
<circle cx="333.971" cy="10" r="10" fill="#F8FAFF"/>
<circle cx="366.744" cy="10" r="10" fill="#F8FAFF"/>
<circle cx="399.52" cy="10" r="10" fill="#F8FAFF"/>
<circle cx="432.293" cy="10" r="10" fill="#F8FAFF"/>
<circle cx="465.068" cy="10" r="10" fill="#F8FAFF"/>
<circle cx="497.842" cy="10" r="10" fill="#F8FAFF"/>
<circle cx="530.617" cy="10" r="10" fill="#F8FAFF"/>
<circle cx="39" cy="579.562" r="10" fill="#F8FAFF"/>
<circle cx="71.7754" cy="579.562" r="10" fill="#F8FAFF"/>
<circle cx="104.549" cy="579.562" r="10" fill="#F8FAFF"/>
<circle cx="137.324" cy="579.562" r="10" fill="#F8FAFF"/>
<circle cx="170.098" cy="579.562" r="10" fill="#F8FAFF"/>
<circle cx="202.873" cy="579.562" r="10" fill="#F8FAFF"/>
<circle cx="235.646" cy="579.562" r="10" fill="#F8FAFF"/>
<circle cx="268.422" cy="579.562" r="10" fill="#F8FAFF"/>
<circle cx="301.195" cy="579.562" r="10" fill="#F8FAFF"/>
<circle cx="333.971" cy="579.562" r="10" fill="#F8FAFF"/>
<circle cx="366.744" cy="579.562" r="10" fill="#F8FAFF"/>
<circle cx="399.52" cy="579.562" r="10" fill="#F8FAFF"/>
<circle cx="432.293" cy="579.562" r="10" fill="#F8FAFF"/>
<circle cx="465.068" cy="579.562" r="10" fill="#F8FAFF"/>
<circle cx="497.842" cy="579.562" r="10" fill="#F8FAFF"/>
<circle cx="530.617" cy="579.562" r="10" fill="#F8FAFF"/>
<circle cx="10" cy="10" r="10" transform="matrix(1 0 0 -1 0 518)" fill="#F8FAFF"/>
<circle cx="560" cy="508" r="10" fill="#F8FAFF"/>
<path d="M35 508H535" stroke="#CCCCCC" stroke-width="1.70326" stroke-linejoin="round" stroke-dasharray="8.52 8.52"/>
</svg>
