<svg width="25" height="25" viewBox="0 0 25 25" fill="none" xmlns="http://www.w3.org/2000/svg">
<path d="M11.9792 22.9154C10.3819 22.9154 9.02778 22.3598 7.91667 21.2487C6.80556 20.1376 6.25 18.7834 6.25 17.1862V6.2487C6.25 5.10286 6.65799 4.12196 7.47396 3.30599C8.28993 2.49002 9.27083 2.08203 10.4167 2.08203C11.5625 2.08203 12.5434 2.49002 13.3594 3.30599C14.1753 4.12196 14.5833 5.10286 14.5833 6.2487V16.1445C14.5833 16.8737 14.3316 17.49 13.8281 17.9935C13.3247 18.497 12.7083 18.7487 11.9792 18.7487C11.25 18.7487 10.6337 18.497 10.1302 17.9935C9.62674 17.49 9.375 16.8737 9.375 16.1445V6.2487H10.9375V16.1445C10.9375 16.4397 11.0375 16.6869 11.2375 16.8862C11.4368 17.0862 11.684 17.1862 11.9792 17.1862C12.2743 17.1862 12.5219 17.0862 12.7219 16.8862C12.9212 16.6869 13.0208 16.4397 13.0208 16.1445V6.2487C13.0208 5.51953 12.7691 4.90321 12.2656 4.39974C11.7622 3.89627 11.1458 3.64453 10.4167 3.64453C9.6875 3.64453 9.07118 3.89627 8.56771 4.39974C8.06424 4.90321 7.8125 5.51953 7.8125 6.2487V17.1862C7.8125 18.332 8.22049 19.3129 9.03646 20.1289C9.85243 20.9449 10.8333 21.3529 11.9792 21.3529C13.125 21.3529 14.1059 20.9449 14.9219 20.1289C15.7378 19.3129 16.1458 18.332 16.1458 17.1862V6.2487H17.7083V17.1862C17.7083 18.7834 17.1528 20.1376 16.0417 21.2487C14.9306 22.3598 13.5764 22.9154 11.9792 22.9154Z" fill="#74788D"/>
</svg>
