<svg width="272" height="287" viewBox="0 0 272 287" fill="none" xmlns="http://www.w3.org/2000/svg">
<g clip-path="url(#clip0_1927_112344)">
<path d="M35.6943 49.6726C35.8195 49.5606 35.938 49.4486 36.0632 49.3366C70.0327 18.7528 115.148 17.3695 148.017 50.2983C165.15 67.4576 195.569 64.1773 217.333 70.3823C292.373 91.7837 279.396 193.6 242.331 242.812C208.882 287.222 136.404 297.261 87.7124 275.405C44.9228 256.204 14.7935 213.302 4.07638 168.451C3.00269 163.952 2.11343 159.407 1.44155 154.835C-4.20357 116.65 6.63216 76.0999 35.6943 49.6726Z" fill="#16479C"/>
<path opacity="0.7" d="M35.6943 49.6726C35.8195 49.5606 35.938 49.4486 36.0632 49.3366C70.0327 18.7528 115.148 17.3695 148.017 50.2983C165.15 67.4576 195.569 64.1773 217.333 70.3823C292.373 91.7837 279.396 193.6 242.331 242.812C208.882 287.222 136.404 297.261 87.7124 275.405C44.9228 256.204 14.7935 213.302 4.07638 168.451C3.00269 163.952 2.11343 159.407 1.44155 154.835C-4.20357 116.65 6.63216 76.0999 35.6943 49.6726Z" fill="white"/>
</g>
<g clip-path="url(#clip1_1927_112344)">
<path d="M74.7754 171.212C71.673 166.72 56.7972 166.791 55.4531 168.788C55.4531 168.788 62.8304 189.722 71.0464 187.556C79.2624 185.381 74.7754 171.212 74.7754 171.212Z" fill="#16479C"/>
<mask id="mask0_1927_112344" style="mask-type:luminance" maskUnits="userSpaceOnUse" x="55" y="167" width="21" height="21">
<path d="M74.7715 171.212C71.669 166.72 56.7933 166.791 55.4492 168.788C55.4492 168.788 62.8265 189.722 71.0425 187.556C79.2585 185.381 74.7715 171.212 74.7715 171.212Z" fill="white"/>
</mask>
<g mask="url(#mask0_1927_112344)">
<path opacity="0.3" d="M74.7715 171.212C71.669 166.72 56.7933 166.791 55.4492 168.788C55.4492 168.788 62.8265 189.722 71.0425 187.556C79.2585 185.381 74.7715 171.212 74.7715 171.212Z" fill="black" fill-opacity="0.7"/>
</g>
<path d="M74.7754 171.212C71.673 166.72 56.7972 166.791 55.4531 168.788C55.4531 168.788 62.8304 189.722 71.0464 187.556C79.2624 185.381 74.7754 171.212 74.7754 171.212Z" stroke="#263238" stroke-width="1.01058" stroke-miterlimit="10" stroke-linecap="round" stroke-linejoin="round"/>
<path d="M57.0296 181.855C57.0296 181.855 55.4531 183.435 55.4531 185.805C55.4531 187.758 59.6976 226.759 72.7846 240.333C75.5233 243.183 78.6561 244.914 82.2234 244.95C93.2994 245.056 98.6656 237.333 105.719 219.426C106.599 217.198 107.508 214.801 108.448 212.244C115.3 193.76 123.728 155.203 123.728 155.203C123.728 155.203 108.781 158.248 99.9187 165.972C96.0482 169.346 92.0058 178.925 89.4289 185.956C88.1555 189.41 87.2359 192.251 86.862 193.44C86.7407 193.84 86.67 194.053 86.67 194.053C86.3264 192.89 85.7706 191.709 85.1036 190.564C85.0935 190.546 85.0935 190.537 85.0834 190.537C85.053 190.511 85.0429 190.475 85.0328 190.448C82.3548 185.938 78.0093 181.961 78.0093 181.961L74.7855 171.21C74.7855 171.21 73.6436 173.172 68.4795 173.864C63.3154 174.557 55.4531 168.786 55.4531 168.786L57.0296 181.855Z" fill="#16479C"/>
<mask id="mask1_1927_112344" style="mask-type:luminance" maskUnits="userSpaceOnUse" x="55" y="155" width="69" height="90">
<path d="M57.0257 181.847C57.0257 181.847 55.4492 183.427 55.4492 185.797C55.4492 187.751 59.6937 226.751 72.7807 240.326C75.5194 243.175 78.6522 244.907 82.2195 244.942C93.2955 245.049 98.6617 237.325 105.716 219.418C106.595 217.19 107.504 214.793 108.444 212.236C115.296 193.752 123.724 155.195 123.724 155.195C123.724 155.195 108.778 158.24 99.9148 165.964C96.0443 169.338 92.0019 178.917 89.425 185.948C88.1516 189.402 87.232 192.243 86.8581 193.432C86.7368 193.832 86.6661 194.045 86.6661 194.045C86.3225 192.882 85.7667 191.701 85.0997 190.556C85.0896 190.538 85.0896 190.529 85.0795 190.529C85.0491 190.503 85.039 190.467 85.0289 190.441C82.3509 185.931 78.0054 181.953 78.0054 181.953L74.7816 171.202C74.7816 171.202 73.6397 173.164 68.4756 173.857C63.3115 174.549 55.4492 168.779 55.4492 168.779L57.0257 181.847Z" fill="white"/>
</mask>
<g mask="url(#mask1_1927_112344)">
<path opacity="0.3" d="M72.7852 240.34C75.5238 243.189 78.6566 244.921 82.224 244.956C93.3 245.063 98.6661 237.339 105.72 219.432L105.568 177.812C105.568 177.812 97.2412 179.233 89.4294 185.962C88.1561 189.416 87.2365 192.257 86.8626 193.447C89.9751 199.146 95.4121 212.25 89.1768 226.215C85.1243 235.27 78.5152 238.955 72.7852 240.34Z" fill="black" fill-opacity="0.7"/>
</g>
<path d="M57.0296 181.855C57.0296 181.855 55.4531 183.435 55.4531 185.805C55.4531 187.758 59.6976 226.759 72.7846 240.333C75.5233 243.183 78.6561 244.914 82.2234 244.95C93.2994 245.056 98.6656 237.333 105.719 219.426C106.599 217.198 107.508 214.801 108.448 212.244C115.3 193.76 123.728 155.203 123.728 155.203C123.728 155.203 108.781 158.248 99.9187 165.972C96.0482 169.346 92.0058 178.925 89.4289 185.956C88.1555 189.41 87.2359 192.251 86.862 193.44C86.7407 193.84 86.67 194.053 86.67 194.053C86.3264 192.89 85.7706 191.709 85.1036 190.564C85.0935 190.546 85.0935 190.537 85.0834 190.537C85.053 190.511 85.0429 190.475 85.0328 190.448C82.3548 185.938 78.0093 181.961 78.0093 181.961L74.7855 171.21C74.7855 171.21 73.6436 173.172 68.4795 173.864C63.3154 174.557 55.4531 168.786 55.4531 168.786L57.0296 181.855Z" stroke="#263238" stroke-width="1.01058" stroke-miterlimit="10" stroke-linecap="round" stroke-linejoin="round"/>
<path d="M92.2578 206.758C93.0561 210.416 93.0865 214.375 91.1562 217.775" stroke="#263238" stroke-width="1.01058" stroke-miterlimit="10" stroke-linecap="round" stroke-linejoin="round"/>
<path d="M86.6758 194.055C88.8586 197.295 90.5665 200.873 91.6782 204.513" stroke="#263238" stroke-width="1.01058" stroke-miterlimit="10" stroke-linecap="round" stroke-linejoin="round"/>
<path d="M93.7274 198.662C93.7274 198.662 92.1712 194.898 87.957 194.055" stroke="#263238" stroke-width="1.01058" stroke-miterlimit="10" stroke-linecap="round" stroke-linejoin="round"/>
<path d="M72.2344 184.896C73.245 184.417 74.1949 183.822 75.0539 183.156" stroke="#263238" stroke-width="1.01058" stroke-miterlimit="10" stroke-linecap="round" stroke-linejoin="round"/>
<path d="M57.0312 181.859C60.3257 184.958 65.4696 186.982 70.2699 185.632" stroke="#263238" stroke-width="1.01058" stroke-miterlimit="10" stroke-linecap="round" stroke-linejoin="round"/>
<path d="M85.0273 190.449C85.0273 190.449 85.0476 190.476 85.088 190.529C85.0678 190.503 85.0476 190.467 85.0273 190.449Z" fill="#16479C" stroke="#263238" stroke-width="1.01058" stroke-miterlimit="10" stroke-linecap="round" stroke-linejoin="round"/>
<path d="M182.629 269.974C182.629 269.974 184.509 256.906 185.661 252.645C190.835 233.433 209.056 188.928 206.115 175.762C203.093 162.223 184.62 150.389 154.818 149.084C127.168 147.867 104.38 156.479 98.9225 166.493C93.718 176.046 93.9302 241.973 95.2541 271.723C95.2541 271.723 152.221 271.723 171.199 271.723C177.202 271.714 182.629 269.974 182.629 269.974Z" fill="#16479C"/>
<mask id="mask2_1927_112344" style="mask-type:luminance" maskUnits="userSpaceOnUse" x="94" y="148" width="113" height="124">
<path d="M182.633 269.99C182.633 269.99 184.512 256.922 185.665 252.66C190.839 233.448 209.06 188.943 206.119 175.777C203.097 162.239 184.624 150.404 154.822 149.099C127.172 147.883 104.384 156.495 98.9264 166.509C93.7219 176.062 93.9341 241.989 95.258 271.739C95.258 271.739 152.224 271.739 171.203 271.739C177.206 271.73 182.633 269.99 182.633 269.99Z" fill="white"/>
</mask>
<g mask="url(#mask2_1927_112344)">
<path opacity="0.3" d="M176.697 190.562C162.377 207.812 146.764 233.62 146.764 233.62L104.117 186.922C104.117 186.922 113.89 246.235 119.215 252.654C124.541 259.073 124.309 262.02 124.309 262.02C124.309 262.02 137.83 274.813 147.966 273.073C156.566 271.599 187.5 241.281 197.141 206.125L176.697 190.562Z" fill="black" fill-opacity="0.7"/>
</g>
<path d="M182.629 269.974C182.629 269.974 184.509 256.906 185.661 252.645C190.835 233.433 209.056 188.928 206.115 175.762C203.093 162.223 184.62 150.389 154.818 149.084C127.168 147.867 104.38 156.479 98.9225 166.493C93.718 176.046 93.9302 241.973 95.2541 271.723C95.2541 271.723 152.221 271.723 171.199 271.723C177.202 271.714 182.629 269.974 182.629 269.974Z" stroke="#263238" stroke-width="1.01058" stroke-miterlimit="10" stroke-linecap="round" stroke-linejoin="round"/>
<path d="M166.853 151.704C166.853 151.704 151.987 157.306 135.898 152.663C135.898 152.663 137.97 148.242 137.98 144.593C137.99 142.764 137.465 141.122 135.898 140.34C135.898 140.34 136.626 139.639 137.859 138.529C137.869 138.529 137.869 138.529 137.869 138.529C143.963 133.078 162.467 117.755 168.49 126.89C168.49 126.89 162.184 127.414 166.853 151.704Z" fill="white" stroke="#263238" stroke-width="1.01058" stroke-miterlimit="10" stroke-linecap="round" stroke-linejoin="round"/>
<path d="M150.047 134.789C150.047 134.789 147.601 142.664 137.98 144.599C137.99 142.77 137.465 141.128 135.898 140.347C135.898 140.347 136.626 139.645 137.859 138.536C137.869 138.536 137.869 138.536 137.869 138.536C143.761 136.503 150.047 134.789 150.047 134.789Z" fill="#263238"/>
<path d="M172.684 114.046C179.071 91.6909 165.317 84.047 156.656 81.1173C142.771 76.4209 125.257 81.7654 121.154 94.1767C117.051 106.597 120.75 109.42 120.558 114.498C120.427 118.058 117.739 119.816 120.7 128.756C122.66 134.651 126.288 141.425 130.522 141.638C141.993 142.224 152.846 136.489 152.24 133.79" fill="white"/>
<path d="M172.684 114.046C179.071 91.6909 165.317 84.047 156.656 81.1173C142.771 76.4209 125.257 81.7654 121.154 94.1767C117.051 106.597 120.75 109.42 120.558 114.498C120.427 118.058 117.739 119.816 120.7 128.756C122.66 134.651 126.288 141.425 130.522 141.638C141.993 142.224 152.846 136.489 152.24 133.79" stroke="#263238" stroke-width="1.01058" stroke-miterlimit="10" stroke-linecap="round" stroke-linejoin="round"/>
<path d="M136.648 103.072C136.648 103.072 141.782 101.509 144.521 106.428" stroke="#263238" stroke-width="1.01058" stroke-miterlimit="10" stroke-linecap="round" stroke-linejoin="round"/>
<path d="M119.203 102.345C119.203 102.345 123.023 99.4952 126.843 103.526" stroke="#263238" stroke-width="1.01058" stroke-miterlimit="10" stroke-linecap="round" stroke-linejoin="round"/>
<path d="M138.941 114.428C139.645 114.428 140.215 113.586 140.215 112.546C140.215 111.507 139.645 110.664 138.941 110.664C138.238 110.664 137.668 111.507 137.668 112.546C137.668 113.586 138.238 114.428 138.941 114.428Z" fill="#263238"/>
<path d="M123.027 111.523C123.027 112.561 123.593 113.405 124.301 113.405C125.008 113.405 125.574 112.561 125.574 111.523C125.574 110.484 125.008 109.641 124.301 109.641C123.593 109.641 123.027 110.484 123.027 111.523Z" fill="#263238"/>
<path d="M126.845 107.211C126.845 107.211 127.634 112.387 127.28 113.399C126.926 114.411 122.944 117.571 122.783 118.974C122.621 120.377 126.118 121.797 126.118 121.797" fill="white"/>
<path d="M126.845 107.211C126.845 107.211 127.634 112.387 127.28 113.399C126.926 114.411 122.944 117.571 122.783 118.974C122.621 120.377 126.118 121.797 126.118 121.797" stroke="#263238" stroke-width="1.01058" stroke-miterlimit="10" stroke-linecap="round" stroke-linejoin="round"/>
<path d="M124.297 124.766C124.297 124.766 132.26 126.523 138.95 124.766C138.95 124.766 135.797 133.439 129.562 132.552C125.439 131.966 126.49 126.284 126.49 126.284L124.297 124.766Z" fill="#263238"/>
<path d="M146.237 90.5552C146.237 90.5552 142.943 88.5665 138.365 89.4987C133.787 90.4397 133.069 98.8915 133.069 98.8915C133.069 98.8915 130.624 96.9916 130.189 94.6479L128.754 98.2789L124.934 95.1184L123.661 98.8915L122.145 96.166L119.204 101.191C119.204 101.191 114.788 96.1926 115.475 92.3307C117.345 81.7927 126.854 73.1367 146.763 74.0689C156.788 74.5394 160.527 80.5675 160.527 80.5675C160.527 80.5675 170.329 79.4045 174.675 83.8701C189.48 99.078 180.193 115.591 166.135 131.243L161.315 116.328L156.646 115.857C156.646 115.857 156.818 113.602 156.676 111.258C156.535 108.915 154.948 105.488 154.948 105.488L153.22 106.171L153.938 103.313L149.996 105.088C149.996 105.088 151.664 93.3428 149.996 91.3542C148.329 89.3655 146.237 90.5552 146.237 90.5552Z" fill="#263238"/>
<path d="M158.383 117.939C158.383 117.939 163.052 110.304 167.923 112.168C172.804 114.033 169.408 123.159 165.164 126.142C160.919 129.125 158.383 126.142 158.383 126.142" fill="white"/>
<path d="M158.383 117.939C158.383 117.939 163.052 110.304 167.923 112.168C172.804 114.033 169.408 123.159 165.164 126.142C160.919 129.125 158.383 126.142 158.383 126.142" stroke="#263238" stroke-width="1.01058" stroke-miterlimit="10" stroke-linecap="round" stroke-linejoin="round"/>
<g opacity="0.2">
<path d="M150.47 87.3953C150.47 87.3953 148.732 83.1161 143.022 82.7877C137.312 82.4592 133.21 87.8925 133.078 91.6833" stroke="white" stroke-width="1.01058" stroke-miterlimit="10" stroke-linecap="round" stroke-linejoin="round"/>
<path d="M154.328 87.2266C154.328 87.2266 158.239 84.5898 160.513 87.2266C164.353 91.6833 161.17 102.434 161.17 102.434" stroke="white" stroke-width="1.01058" stroke-miterlimit="10" stroke-linecap="round" stroke-linejoin="round"/>
<path d="M159.656 84.0832C159.656 84.0832 163.729 81.8904 167.215 86.1251C170.702 90.3599 170.328 100.658 170.328 100.658" stroke="white" stroke-width="1.01058" stroke-miterlimit="10" stroke-linecap="round" stroke-linejoin="round"/>
<path d="M171.18 83.5156C171.18 83.5156 178.223 86.1257 178.628 98.5992" stroke="white" stroke-width="1.01058" stroke-miterlimit="10" stroke-linecap="round" stroke-linejoin="round"/>
<path d="M154.8 84.0806C154.8 84.0806 150.838 78.1679 139.095 80.1477C127.362 82.1275 125.594 92.6656 125.594 92.6656" stroke="white" stroke-width="1.01058" stroke-miterlimit="10" stroke-linecap="round" stroke-linejoin="round"/>
<path d="M157.724 82.2917C157.724 82.2917 152.995 76.5299 138.634 77.6841C124.274 78.8382 118.493 89.8734 119.949 95.138" stroke="white" stroke-width="1.01058" stroke-miterlimit="10" stroke-linecap="round" stroke-linejoin="round"/>
</g>
<path d="M40 156.215C40 156.215 57.0889 144.665 64.5369 143.493C71.9849 142.321 97.6132 147.239 97.6132 147.239V173.9C97.6132 173.9 81.5753 175.445 74.38 180.07C67.1846 184.695 42.3951 185.441 42.3951 185.441L40 156.215Z" fill="#757575" stroke="#263238" stroke-width="1.01058" stroke-miterlimit="10" stroke-linecap="round" stroke-linejoin="round"/>
<path d="M56.043 147.948C56.043 147.948 56.4371 144.556 57.0434 142.683C57.6498 140.81 61.7831 141.014 62.7128 141.671C63.6425 142.328 64.542 143.482 64.542 143.482C64.542 143.482 63.1069 143.846 62.7128 143.97C62.3086 144.086 61.9043 150.877 56.043 147.948Z" fill="white" stroke="#263238" stroke-width="1.01058" stroke-miterlimit="10" stroke-linecap="round" stroke-linejoin="round"/>
<path d="M77.8599 107.239L60.832 150.602L85.2782 158.01L102.306 114.647L77.8599 107.239Z" fill="#16479C"/>
<mask id="mask3_1927_112344" style="mask-type:luminance" maskUnits="userSpaceOnUse" x="60" y="107" width="43" height="52">
<path d="M77.8638 107.239L60.8359 150.602L85.2821 158.01L102.31 114.647L77.8638 107.239Z" fill="white"/>
</mask>
<g mask="url(#mask3_1927_112344)">
<path opacity="0.5" d="M60.832 150.602L85.278 158.006L102.306 114.646L77.8603 107.242L60.832 150.602ZM99.7394 115.747L84.035 155.751L63.409 149.501L79.1134 109.497L99.7394 115.747Z" fill="black" fill-opacity="0.7"/>
</g>
<mask id="mask4_1927_112344" style="mask-type:luminance" maskUnits="userSpaceOnUse" x="60" y="107" width="43" height="52">
<path d="M77.8638 107.239L60.8359 150.602L85.2821 158.01L102.31 114.647L77.8638 107.239Z" fill="white"/>
</mask>
<g mask="url(#mask4_1927_112344)">
<path opacity="0.5" d="M81.4984 112.894L79.3964 118.247C79.164 118.851 78.4162 119.161 77.7391 118.957C77.0519 118.753 76.6982 118.096 76.9306 117.501L79.0326 112.148C79.2651 111.544 80.0129 111.233 80.69 111.438C81.3671 111.633 81.7309 112.29 81.4984 112.894Z" fill="black" fill-opacity="0.7"/>
</g>
<mask id="mask5_1927_112344" style="mask-type:luminance" maskUnits="userSpaceOnUse" x="60" y="107" width="43" height="52">
<path d="M77.8638 107.239L60.8359 150.602L85.2821 158.01L102.31 114.647L77.8638 107.239Z" fill="white"/>
</mask>
<g mask="url(#mask5_1927_112344)">
<path opacity="0.5" d="M86.225 147.745L84.123 153.098C83.8906 153.702 83.1427 154.013 82.4656 153.809C81.7784 153.605 81.4247 152.948 81.6572 152.353L83.7592 146.999C83.9916 146.396 84.7394 146.085 85.4165 146.289C86.0936 146.493 86.4574 147.15 86.225 147.745Z" fill="black" fill-opacity="0.7"/>
</g>
<mask id="mask6_1927_112344" style="mask-type:luminance" maskUnits="userSpaceOnUse" x="60" y="107" width="43" height="52">
<path d="M77.8638 107.239L60.8359 150.602L85.2821 158.01L102.31 114.647L77.8638 107.239Z" fill="white"/>
</mask>
<g mask="url(#mask6_1927_112344)">
<path opacity="0.5" d="M73.9161 130.317C72.4609 134.028 74.7044 138.086 78.9286 139.364C83.1528 140.642 87.7712 138.671 89.2264 134.961C90.6817 131.25 88.4382 127.192 84.214 125.914C79.9897 124.636 75.3714 126.598 73.9161 130.317ZM85.8208 133.398L86.4271 133.584L86.0633 134.526L85.457 134.339C84.9416 135.103 84.0624 135.298 82.9305 134.961L82.3646 134.792L82.789 133.709L83.4358 133.904C84.0321 134.082 84.3352 133.922 84.4767 133.558C84.6182 133.194 84.4969 132.901 83.9007 132.723C83.3044 132.546 82.7991 132.626 81.8088 133.185C80.5961 133.869 79.8078 133.984 78.8579 133.7C77.7462 133.363 77.1904 132.741 77.3016 131.88L76.6851 131.693L77.0489 130.752L77.6654 130.939C78.1707 130.184 79.0499 129.98 80.1716 130.326L80.4344 130.406L80.0099 131.489L79.6663 131.383C79.0701 131.205 78.7669 131.347 78.6254 131.711C78.484 132.075 78.6254 132.35 79.2217 132.528C79.8179 132.706 80.3131 132.626 81.3136 132.066C82.5364 131.392 83.3145 131.267 84.2645 131.551C85.3963 131.88 85.9522 132.528 85.8208 133.398Z" fill="black" fill-opacity="0.7"/>
</g>
<path d="M77.8599 107.239L60.832 150.602L85.2782 158.01L102.306 114.647L77.8599 107.239Z" stroke="#263238" stroke-width="1.01055" stroke-miterlimit="10" stroke-linecap="round" stroke-linejoin="round"/>
<path d="M40 156.221C40 156.221 64.7896 148.879 71.4493 147.831C78.109 146.775 97.6132 147.245 97.6132 147.245V173.905C97.6132 173.905 77.2601 179.33 74.1172 181.505C70.9743 183.68 42.4052 185.447 42.4052 185.447L40 156.221Z" fill="#999999" stroke="#263238" stroke-width="1.01058" stroke-miterlimit="10" stroke-linecap="round" stroke-linejoin="round"/>
<path d="M73.8234 159.383C72.5197 165.553 73.4596 173.827 68.8008 178.834" stroke="#263238" stroke-width="1.01058" stroke-miterlimit="10" stroke-linecap="round" stroke-linejoin="round"/>
<path d="M75.9897 150.039C75.4844 152.054 75.0094 154.07 74.5547 156.094" stroke="#263238" stroke-width="1.01058" stroke-miterlimit="10" stroke-linecap="round" stroke-linejoin="round"/>
<path d="M48.5821 117.289C45.6009 116.65 43.7818 114.004 44.5196 111.385C45.2472 108.766 48.2587 107.168 51.2399 107.816C54.2212 108.455 56.0402 111.101 55.3025 113.72C54.5749 116.33 51.5633 117.928 48.5821 117.289Z" fill="#BFBFBF" stroke="#263238" stroke-width="1.01058" stroke-miterlimit="10" stroke-linecap="round" stroke-linejoin="round"/>
<path opacity="0.5" d="M45.8161 114.474C47.0186 116.463 49.8382 117.218 52.1019 116.152C54.3656 115.096 55.2246 112.619 54.0119 110.63C52.8093 108.642 49.9898 107.887 47.7261 108.952C45.4624 110.009 44.6034 112.486 45.8161 114.474ZM51.9402 111.278L52.2636 111.127L52.5667 111.625L52.2434 111.775C52.405 112.264 52.1625 112.663 51.5562 112.947L51.253 113.089L50.8993 112.512L51.253 112.353C51.5663 112.202 51.6067 112.024 51.4955 111.829C51.3743 111.633 51.1923 111.562 50.869 111.713C50.5557 111.864 50.394 112.077 50.2727 112.663C50.1312 113.374 49.8786 113.711 49.3733 113.951C48.7771 114.226 48.2617 114.19 47.8979 113.809L47.5644 113.959L47.2612 113.462L47.5846 113.32C47.4229 112.841 47.6654 112.441 48.2718 112.157L48.4133 112.095L48.767 112.672L48.5851 112.761C48.2718 112.912 48.2111 113.081 48.3324 113.276C48.4537 113.471 48.6356 113.524 48.959 113.374C49.2722 113.223 49.4339 113.01 49.5552 112.424C49.7068 111.704 49.9493 111.376 50.4546 111.136C51.0509 110.843 51.5764 110.888 51.9402 111.278Z" fill="black" fill-opacity="0.7"/>
<path d="M115.155 160.633C113.741 158.378 109.698 159.47 104.979 165.978C100.259 172.485 98.3393 180.085 99.4813 182.846C100.623 185.607 115.873 188.963 115.873 188.963L119.016 181.958L115.155 160.633Z" fill="#16479C"/>
<mask id="mask7_1927_112344" style="mask-type:luminance" maskUnits="userSpaceOnUse" x="99" y="159" width="21" height="30">
<path d="M115.155 160.618C113.741 158.363 109.698 159.455 104.979 165.962C100.259 172.47 98.3393 180.069 99.4813 182.83C100.623 185.591 115.873 188.947 115.873 188.947L119.016 181.942L115.155 160.618Z" fill="white"/>
</mask>
<g mask="url(#mask7_1927_112344)">
<path opacity="0.5" d="M115.155 160.618C113.741 158.363 109.698 159.455 104.979 165.962C100.259 172.47 98.3393 180.069 99.4813 182.83C100.623 185.591 115.873 188.947 115.873 188.947L119.016 181.942L115.155 160.618Z" fill="black" fill-opacity="0.7"/>
</g>
<path d="M115.155 160.633C113.741 158.378 109.698 159.47 104.979 165.978C100.259 172.485 98.3393 180.085 99.4813 182.846C100.623 185.607 115.873 188.963 115.873 188.963L119.016 181.958L115.155 160.633Z" stroke="#263238" stroke-width="1.01058" stroke-miterlimit="10" stroke-linecap="round" stroke-linejoin="round"/>
<path d="M121.603 174.258L112.851 157.435C112.851 157.435 107.152 150.27 106.03 147.536C104.908 144.802 92.3667 142.68 89.5371 142.68C86.7075 142.68 83.706 147.128 83.706 147.128H89.5977C89.5977 147.128 91.7907 149.161 92.0736 150.368C92.3465 151.584 84.2821 157.621 83.13 158.198C81.9779 158.775 78.9361 159.663 75.7326 161.749C72.529 163.836 65.3034 165.46 63.9593 167.334C62.6152 169.207 63.5652 169.553 64.5252 169.988C65.4954 170.423 67.1022 170.521 67.1022 170.521C67.1022 170.521 66.5262 172.643 67.1022 173.761C67.6782 174.871 71.0333 174.773 71.0333 174.773C71.0333 174.773 71.195 176.318 72.8322 176.558C74.4693 176.798 75.7224 177.233 75.7224 177.233C75.7224 177.233 82.655 178.262 85.7676 177.685C88.8802 177.108 98.319 172.687 100.623 172.873C102.927 173.06 109.314 186.066 109.314 186.066C109.314 186.066 120.218 184.433 121.603 174.258Z" fill="white" stroke="#263238" stroke-width="1.01058" stroke-miterlimit="10" stroke-linecap="round" stroke-linejoin="round"/>
<path d="M67.1172 170.512C67.1172 170.512 76.172 168.79 76.7783 168.186C77.3746 167.583 83.7109 165.852 83.7109 165.852" stroke="#263238" stroke-width="1.01058" stroke-miterlimit="10" stroke-linecap="round" stroke-linejoin="round"/>
<path d="M71.043 174.759C71.043 174.759 76.1262 173.845 77.8947 173.65C79.6632 173.445 86.9192 170.516 86.9192 170.516" stroke="#263238" stroke-width="1.01058" stroke-miterlimit="10" stroke-linecap="round" stroke-linejoin="round"/>
<path d="M75.7344 177.223C75.7344 177.223 82.8994 176.69 84.3951 176.078C85.8907 175.474 90.2665 174.258 90.2665 174.258" stroke="#263238" stroke-width="1.01058" stroke-miterlimit="10" stroke-linecap="round" stroke-linejoin="round"/>
<path d="M181.613 166.848C170.981 173.001 164.554 187.871 164.554 187.871L147.96 214.993C147.96 214.993 134.004 184.808 130.053 184.418L115.157 160.625C115.157 160.625 116.915 174.563 110.71 180.485C104.505 186.406 99.4727 182.846 99.4727 182.846L104.111 194.095L105.263 199.439C105.263 199.439 124.838 251.038 131.245 254.234C137.642 257.43 152.205 258.859 164.554 250.913C176.903 242.968 198.025 212.934 200.025 203.106" fill="#16479C"/>
<path d="M181.613 166.848C170.981 173.001 164.554 187.871 164.554 187.871L147.96 214.993C147.96 214.993 134.004 184.808 130.053 184.418L115.157 160.625C115.157 160.625 116.915 174.563 110.71 180.485C104.505 186.406 99.4727 182.846 99.4727 182.846L104.111 194.095L105.263 199.439C105.263 199.439 124.838 251.038 131.245 254.234C137.642 257.43 152.205 258.859 164.554 250.913C176.903 242.968 198.025 212.934 200.025 203.106" stroke="#263238" stroke-width="1.01058" stroke-miterlimit="10" stroke-linecap="round" stroke-linejoin="round"/>
<path d="M124.051 187.989C124.586 187.278 125.082 186.55 125.536 185.805" stroke="#263238" stroke-width="1.01058" stroke-miterlimit="10" stroke-linecap="round" stroke-linejoin="round"/>
<path d="M111.508 195.048C115.772 194.649 119.734 192.696 122.493 189.828" stroke="#263238" stroke-width="1.01058" stroke-miterlimit="10" stroke-linecap="round" stroke-linejoin="round"/>
<path d="M104.109 194.086C105.767 194.699 107.535 195.045 109.324 195.107" stroke="#263238" stroke-width="1.01058" stroke-miterlimit="10" stroke-linecap="round" stroke-linejoin="round"/>
<path d="M152.301 226.953C152.371 228.196 152.28 229.439 151.957 230.655" stroke="#263238" stroke-width="1.01058" stroke-miterlimit="10" stroke-linecap="round" stroke-linejoin="round"/>
<path d="M147.957 215C149.907 217.983 151.373 221.33 152.03 224.721" stroke="#263238" stroke-width="1.01058" stroke-miterlimit="10" stroke-linecap="round" stroke-linejoin="round"/>
<path d="M157.133 219.856C157.133 219.856 154.112 216.536 150.676 215" stroke="#263238" stroke-width="1.01058" stroke-miterlimit="10" stroke-linecap="round" stroke-linejoin="round"/>
<path d="M183.37 180.494C183.37 180.494 174.033 179.393 166.625 186.904" stroke="#263238" stroke-width="1.01058" stroke-miterlimit="10" stroke-linecap="round" stroke-linejoin="round"/>
<path d="M193.243 203.433C191.454 203.655 189.625 203.415 188.008 202.688" stroke="#263238" stroke-width="1.01058" stroke-miterlimit="10" stroke-linecap="round" stroke-linejoin="round"/>
<path d="M204.459 192.43C202.993 198.653 199.032 201.814 195.586 202.914" stroke="#263238" stroke-width="1.01058" stroke-miterlimit="10" stroke-linecap="round" stroke-linejoin="round"/>
<path d="M160.436 157.049C160.436 157.049 144.933 160.219 136.293 155.141" stroke="#263238" stroke-width="1.01058" stroke-miterlimit="10" stroke-linecap="round" stroke-linejoin="round"/>
<path d="M104.836 240.375C104.836 240.375 113.284 261.327 132.819 264.878" stroke="#263238" stroke-width="1.01058" stroke-miterlimit="10" stroke-linecap="round" stroke-linejoin="round"/>
<path d="M161.305 269.414C160.294 270.08 159.243 270.692 158.172 271.27" stroke="#263238" stroke-width="1.01058" stroke-miterlimit="10" stroke-linecap="round" stroke-linejoin="round"/>
<path d="M91.9727 258.314C110.821 258.051 110.973 263.313 143.473 269.314C175.973 275.315 188.973 263.314 188.973 263.314V275.314C151.075 278.828 129.866 278.384 91.9727 275.314V258.314Z" fill="#B9C8E1"/>
</g>
<defs>
<clipPath id="clip0_1927_112344">
<rect width="272" height="260.538" fill="white" transform="translate(0 26)"/>
</clipPath>
<clipPath id="clip1_1927_112344">
<rect width="167.453" height="275.917" fill="white" transform="translate(36)"/>
</clipPath>
</defs>
</svg>
