<svg width="20" height="20" viewBox="0 0 20 20" fill="none" xmlns="http://www.w3.org/2000/svg">
<path d="M4.16667 18.3307C3.70833 18.3307 3.31583 18.1674 2.98917 17.8407C2.6625 17.5141 2.49945 17.1218 2.5 16.6641V4.9974C2.5 4.53906 2.66333 4.14656 2.99 3.8199C3.31667 3.49323 3.70889 3.33017 4.16667 3.33073H5V1.66406H6.66667V3.33073H13.3333V1.66406H15V3.33073H15.8333C16.2917 3.33073 16.6842 3.49406 17.0108 3.82073C17.3375 4.1474 17.5006 4.53962 17.5 4.9974V16.6641C17.5 17.1224 17.3367 17.5149 17.01 17.8416C16.6833 18.1682 16.2911 18.3313 15.8333 18.3307H4.16667ZM4.16667 16.6641H15.8333V8.33073H4.16667V16.6641ZM4.16667 6.66406H15.8333V4.9974H4.16667V6.66406ZM10 11.6641C9.76389 11.6641 9.56583 11.5841 9.40583 11.4241C9.24583 11.2641 9.16611 11.0663 9.16667 10.8307C9.16667 10.5946 9.24667 10.3966 9.40667 10.2366C9.56667 10.0766 9.76445 9.99684 10 9.9974C10.2361 9.9974 10.4342 10.0774 10.5942 10.2374C10.7542 10.3974 10.8339 10.5952 10.8333 10.8307C10.8333 11.0668 10.7533 11.2649 10.5933 11.4249C10.4333 11.5849 10.2356 11.6646 10 11.6641ZM6.66667 11.6641C6.43056 11.6641 6.2325 11.5841 6.0725 11.4241C5.9125 11.2641 5.83278 11.0663 5.83333 10.8307C5.83333 10.5946 5.91333 10.3966 6.07333 10.2366C6.23333 10.0766 6.43111 9.99684 6.66667 9.9974C6.90278 9.9974 7.10084 10.0774 7.26084 10.2374C7.42084 10.3974 7.50056 10.5952 7.5 10.8307C7.5 11.0668 7.42 11.2649 7.26 11.4249C7.1 11.5849 6.90222 11.6646 6.66667 11.6641ZM13.3333 11.6641C13.0972 11.6641 12.8992 11.5841 12.7392 11.4241C12.5792 11.2641 12.4994 11.0663 12.5 10.8307C12.5 10.5946 12.58 10.3966 12.74 10.2366C12.9 10.0766 13.0978 9.99684 13.3333 9.9974C13.5694 9.9974 13.7675 10.0774 13.9275 10.2374C14.0875 10.3974 14.1672 10.5952 14.1667 10.8307C14.1667 11.0668 14.0867 11.2649 13.9267 11.4249C13.7667 11.5849 13.5689 11.6646 13.3333 11.6641ZM10 14.9974C9.76389 14.9974 9.56583 14.9174 9.40583 14.7574C9.24583 14.5974 9.16611 14.3996 9.16667 14.1641C9.16667 13.928 9.24667 13.7299 9.40667 13.5699C9.56667 13.4099 9.76445 13.3302 10 13.3307C10.2361 13.3307 10.4342 13.4107 10.5942 13.5707C10.7542 13.7307 10.8339 13.9285 10.8333 14.1641C10.8333 14.4002 10.7533 14.5982 10.5933 14.7582C10.4333 14.9182 10.2356 14.998 10 14.9974ZM6.66667 14.9974C6.43056 14.9974 6.2325 14.9174 6.0725 14.7574C5.9125 14.5974 5.83278 14.3996 5.83333 14.1641C5.83333 13.928 5.91333 13.7299 6.07333 13.5699C6.23333 13.4099 6.43111 13.3302 6.66667 13.3307C6.90278 13.3307 7.10084 13.4107 7.26084 13.5707C7.42084 13.7307 7.50056 13.9285 7.5 14.1641C7.5 14.4002 7.42 14.5982 7.26 14.7582C7.1 14.9182 6.90222 14.998 6.66667 14.9974ZM13.3333 14.9974C13.0972 14.9974 12.8992 14.9174 12.7392 14.7574C12.5792 14.5974 12.4994 14.3996 12.5 14.1641C12.5 13.928 12.58 13.7299 12.74 13.5699C12.9 13.4099 13.0978 13.3302 13.3333 13.3307C13.5694 13.3307 13.7675 13.4107 13.9275 13.5707C14.0875 13.7307 14.1672 13.9285 14.1667 14.1641C14.1667 14.4002 14.0867 14.5982 13.9267 14.7582C13.7667 14.9182 13.5689 14.998 13.3333 14.9974Z" fill="#495057"/>
</svg>
