<svg width="20" height="20" viewBox="0 0 20 20" fill="none" xmlns="http://www.w3.org/2000/svg">
<g clip-path="url(#clip0_1927_112192)">
<path d="M9.67809 0.5625L0.625 4.92141V7.18914H19.375V4.90937L9.67809 0.5625ZM18.125 5.93914H1.875V5.70687L9.69691 1.94078L18.125 5.71891V5.93914ZM1.875 15.9391H18.125V17.1891H1.875V15.9391ZM0.625 18.1266H19.375V19.3766H0.625V18.1266ZM2.1875 8.43914H3.4375V14.6891H2.1875V8.43914ZM16.5625 8.43914H17.8125V14.6891H16.5625V8.43914ZM12.8125 8.43914H14.0625V14.6891H12.8125V8.43914ZM5.9375 8.43914H7.1875V14.6891H5.9375V8.43914ZM9.375 8.43914H10.625V14.6891H9.375V8.43914Z" fill="#495057"/>
</g>
<defs>
<clipPath id="clip0_1927_112192">
<rect width="20" height="20" fill="white"/>
</clipPath>
</defs>
</svg>
