<svg width="32" height="31" viewBox="0 0 32 31" fill="none" xmlns="http://www.w3.org/2000/svg">
<circle cx="16.5703" cy="15" r="15" fill="#CCCCCC"/>
<path d="M11.2812 15.7187C11.2812 15.5521 11.3125 15.3908 11.375 15.235C11.4375 15.0783 11.5208 14.9479 11.625 14.8437L17.375 9.09375C17.6042 8.86458 17.8958 8.75 18.25 8.75C18.6042 8.75 18.8958 8.86458 19.125 9.09375C19.3542 9.32292 19.4688 9.61458 19.4688 9.96875C19.4688 10.3229 19.3542 10.6146 19.125 10.8438L14.25 15.7187L19.125 20.5937C19.3542 20.8229 19.4688 21.1146 19.4688 21.4687C19.4688 21.8229 19.3542 22.1146 19.125 22.3437C18.8958 22.5729 18.6042 22.6875 18.25 22.6875C17.8958 22.6875 17.6042 22.5729 17.375 22.3437L11.625 16.5937C11.5 16.4687 11.4117 16.3333 11.36 16.1875C11.3075 16.0417 11.2812 15.8854 11.2812 15.7187Z" fill="black"/>
</svg>
