<svg width="50" height="51" viewBox="0 0 50 51" fill="none" xmlns="http://www.w3.org/2000/svg">
<circle cx="25" cy="25.7188" r="25" fill="#FFEE8E"/>
<g clip-path="url(#clip0_1901_112412)">
<path d="M32.7175 34.9775H23.4582V28.8047H21.915V34.9775H17.2854V28.8047H15.7422V34.9775C15.7422 35.3868 15.9048 35.7793 16.1942 36.0687C16.4836 36.3581 16.8761 36.5207 17.2854 36.5207H32.7175C33.1268 36.5207 33.5193 36.3581 33.8087 36.0687C34.0981 35.7793 34.2607 35.3868 34.2607 34.9775V28.8047H32.7175V34.9775Z" fill="black"/>
<path d="M37.1856 22.0668L34.0374 15.7705C33.9097 15.5134 33.7127 15.2971 33.4687 15.1458C33.2247 14.9945 32.9434 14.9142 32.6563 14.9141H17.3476C17.0605 14.9142 16.7792 14.9945 16.5352 15.1458C16.2912 15.2971 16.0942 15.5134 15.9664 15.7705L12.8183 22.0668C12.7108 22.2825 12.6553 22.5203 12.6563 22.7613V25.1378C12.6556 25.4984 12.7811 25.8478 13.0112 26.1255C13.3512 26.5152 13.7712 26.8272 14.2425 27.0403C14.7138 27.2533 15.2255 27.3624 15.7427 27.3601C16.5866 27.3614 17.4049 27.0695 18.0575 26.5344C18.7101 27.0698 19.5282 27.3624 20.3723 27.3624C21.2165 27.3624 22.0345 27.0698 22.6871 26.5344C23.3398 27.0698 24.1578 27.3624 25.0019 27.3624C25.8461 27.3624 26.6641 27.0698 27.3168 26.5344C27.9694 27.0698 28.7874 27.3624 29.6316 27.3624C30.4757 27.3624 31.2938 27.0698 31.9464 26.5344C32.6749 27.1326 33.607 27.425 34.5466 27.3502C35.4863 27.2754 36.3603 26.8391 36.985 26.1332C37.2178 25.8566 37.3462 25.5071 37.3476 25.1455V22.7613C37.3486 22.5203 37.2931 22.2825 37.1856 22.0668ZM22.6871 22.9388V24.1116L22.0544 24.9449C21.8602 25.2097 21.6063 25.4249 21.3134 25.5733C21.0205 25.7217 20.6968 25.799 20.3685 25.799C20.0401 25.799 19.7164 25.7217 19.4235 25.5733C19.1306 25.4249 18.8767 25.2097 18.6825 24.9449L18.0575 24.0807V22.9388L20.056 16.4573H23.4587L22.6871 22.9388ZM31.9464 24.0807L31.3214 24.9449C31.1272 25.2097 30.8733 25.4249 30.5804 25.5733C30.2875 25.7217 29.9638 25.799 29.6354 25.799C29.3071 25.799 28.9834 25.7217 28.6905 25.5733C28.3975 25.4249 28.1437 25.2097 27.9495 24.9449L27.3168 24.0807V22.9388L26.5452 16.4573H29.9788L31.9464 22.9388V24.0807Z" fill="black"/>
</g>
<defs>
<clipPath id="clip0_1901_112412">
<rect width="27.7778" height="27.7778" fill="white" transform="translate(11.1133 11.8281)"/>
</clipPath>
</defs>
</svg>
