<svg width="25" height="26" viewBox="0 0 25 26" fill="none" xmlns="http://www.w3.org/2000/svg">
<path d="M12.4987 17.3802L16.6654 13.2135L12.4987 9.04688L11.0404 10.5052L12.707 12.1719H8.33203V14.2552H12.707L11.0404 15.9219L12.4987 17.3802ZM12.4987 23.6302C11.0577 23.6302 9.70356 23.3566 8.4362 22.8094C7.16884 22.2628 6.06641 21.5208 5.12891 20.5833C4.19141 19.6458 3.44939 18.5434 2.90286 17.276C2.35564 16.0087 2.08203 14.6545 2.08203 13.2135C2.08203 11.7726 2.35564 10.4184 2.90286 9.15104C3.44939 7.88368 4.19141 6.78125 5.12891 5.84375C6.06641 4.90625 7.16884 4.16389 8.4362 3.61667C9.70356 3.07014 11.0577 2.79688 12.4987 2.79688C13.9397 2.79688 15.2938 3.07014 16.5612 3.61667C17.8286 4.16389 18.931 4.90625 19.8685 5.84375C20.806 6.78125 21.548 7.88368 22.0945 9.15104C22.6418 10.4184 22.9154 11.7726 22.9154 13.2135C22.9154 14.6545 22.6418 16.0087 22.0945 17.276C21.548 18.5434 20.806 19.6458 19.8685 20.5833C18.931 21.5208 17.8286 22.2628 16.5612 22.8094C15.2938 23.3566 13.9397 23.6302 12.4987 23.6302Z" fill="#1E6B57"/>
</svg>
