<svg width="257" height="265" viewBox="0 0 257 265" fill="none" xmlns="http://www.w3.org/2000/svg">
<g clip-path="url(#clip0_1928_112090)">
<path d="M225.102 203.917C225.026 204.026 224.954 204.134 224.878 204.243C204.167 233.973 169.591 243.171 138.284 223.676C121.966 213.517 99.0757 221.532 81.1574 220.664C19.3748 217.667 11.0432 136.733 30.7866 92.0646C48.6038 51.7551 102.743 30.9445 144.268 39.0409C180.759 46.1518 211.748 73.8393 228.104 106.53C229.743 109.81 231.249 113.158 232.591 116.566C243.83 145.025 242.774 178.279 225.102 203.917Z" fill="#16479C"/>
<path opacity="0.7" d="M225.102 203.917C225.026 204.026 224.954 204.134 224.878 204.243C204.167 233.973 169.591 243.171 138.284 223.676C121.966 213.517 99.0757 221.532 81.1574 220.664C19.3748 217.667 11.0432 136.733 30.7866 92.0646C48.6038 51.7551 102.743 30.9445 144.268 39.0409C180.759 46.1518 211.748 73.8393 228.104 106.53C229.743 109.81 231.249 113.158 232.591 116.566C243.83 145.025 242.774 178.279 225.102 203.917Z" fill="white"/>
</g>
<g clip-path="url(#clip1_1928_112090)">
<path d="M150.973 138.794C150.749 147.617 155.12 146.905 155.12 146.905C155.391 146.173 156.015 145.17 156.767 144.005C159.051 140.488 162.554 135.555 161.239 132.634C160.643 131.306 159.525 129.456 158.319 127.599C155.974 124.008 153.291 120.382 153.291 120.382L164.953 118.451C164.953 118.451 173.261 121.887 179.813 122.287C179.983 122.3 180.159 122.3 180.322 122.3C186.305 122.415 185.343 117.719 185.343 116.208C185.343 115.564 183.723 114.378 181.833 113.213C179.129 111.553 175.856 109.926 175.856 109.926L177.631 106.254C178.865 106.477 179.888 106.518 180.728 106.416C185.268 105.922 184.645 101.449 183.906 99.5043C183.696 98.9487 182.653 98.1016 181.175 97.1326C176.506 94.0561 167.575 89.7734 167.575 89.7734H154.47L141.574 124.977C141.574 124.97 151.19 129.971 150.973 138.794Z" fill="white"/>
<path opacity="0.4" d="M150.973 138.794C150.749 147.617 155.12 146.905 155.12 146.905C155.391 146.173 156.015 145.17 156.767 144.005C159.051 140.488 162.554 135.555 161.239 132.634C160.643 131.306 159.525 129.456 158.319 127.599C155.974 124.008 153.291 120.382 153.291 120.382L164.953 118.451C164.953 118.451 173.261 121.887 179.813 122.287C179.983 122.3 180.159 122.3 180.322 122.3C186.305 122.415 185.343 117.719 185.343 116.208C185.343 115.564 183.723 114.378 181.833 113.213C179.129 111.553 175.856 109.926 175.856 109.926L177.631 106.254C178.865 106.477 179.888 106.518 180.728 106.416C185.268 105.922 184.645 101.449 183.906 99.5043C183.696 98.9487 182.653 98.1016 181.175 97.1326C176.506 94.0561 167.575 89.7734 167.575 89.7734H154.47L141.574 124.977C141.574 124.97 151.19 129.971 150.973 138.794Z" fill="#80A0D8"/>
<path opacity="0.4" d="M150.973 138.792C150.749 147.615 155.12 146.903 155.12 146.903C155.391 146.171 156.015 145.168 156.767 144.003C156.611 143.183 156.516 142.302 156.53 141.434C156.584 138.412 159.064 132.632 159.064 132.632L156.53 128.62C156.902 128.241 157.533 127.895 158.319 127.59C155.974 123.999 153.291 120.373 153.291 120.373L164.953 118.442C164.953 118.442 173.261 121.878 179.813 122.278C179.983 122.291 180.159 122.291 180.322 122.291C179.942 119.005 181.236 114.864 181.833 113.204C179.129 111.544 175.856 109.918 175.856 109.918L177.631 106.245C178.865 106.468 179.888 106.509 180.728 106.407C180.132 103.541 180.701 99.5632 181.182 97.117C176.513 94.0405 167.582 89.7578 167.582 89.7578H154.47L141.574 124.961C141.574 124.968 151.19 129.969 150.973 138.792Z" fill="#80A0D8"/>
<path d="M154.471 89.7734H167.583C167.583 89.7734 183.04 97.1868 183.914 99.5111C184.788 101.829 185.5 107.677 177.632 106.267L175.857 109.94C175.857 109.94 185.344 114.656 185.344 116.222C185.344 117.78 186.367 122.693 179.814 122.293C173.262 121.9 164.961 118.458 164.961 118.458L153.298 120.389C153.298 120.389 159.499 128.758 161.247 132.648C162.995 136.537 156.219 143.978 155.128 146.925C155.128 146.925 150.757 147.637 150.974 138.807C151.191 129.984 141.582 124.984 141.582 124.984" stroke="#263238" stroke-width="0.677638" stroke-miterlimit="10" stroke-linecap="round" stroke-linejoin="round"/>
<path d="M157.572 131.072C157.572 131.072 154.285 129.236 152.496 132.644" stroke="#263238" stroke-width="0.677638" stroke-miterlimit="10" stroke-linecap="round" stroke-linejoin="round"/>
<path d="M197.72 134.643H132.775C129.305 134.643 126.5 131.831 126.5 128.368V6.60305C126.5 3.13355 129.312 0.328125 132.775 0.328125H197.72C201.189 0.328125 203.995 3.14032 203.995 6.60305V128.368C204.001 131.837 201.189 134.643 197.72 134.643Z" fill="#16479C" stroke="#263238" stroke-width="0.677638" stroke-miterlimit="10" stroke-linecap="round" stroke-linejoin="round"/>
<path d="M201.595 5.77521V129.539C201.595 131.084 200.342 132.338 198.797 132.338H131.697C130.152 132.338 128.898 131.084 128.898 129.539V5.77521C128.898 4.23019 130.152 2.97656 131.697 2.97656H146.605C147.588 2.97656 148.462 3.58644 148.807 4.50802L149.438 6.2089C149.783 7.13048 150.657 7.74036 151.64 7.74036H178.847C179.83 7.74036 180.704 7.13048 181.049 6.2089L181.68 4.50802C182.025 3.58644 182.899 2.97656 183.882 2.97656H198.79C200.342 2.97656 201.595 4.23019 201.595 5.77521Z" fill="#E7EBEF"/>
<path d="M175.074 101.775H155.423C151.743 101.775 148.762 98.7939 148.762 95.1143C148.762 91.4347 151.743 88.4531 155.423 88.4531H175.074C178.754 88.4531 181.736 91.4347 181.736 95.1143C181.742 98.7939 178.754 101.775 175.074 101.775Z" fill="#16479C" stroke="#263238" stroke-width="0.677638" stroke-miterlimit="10" stroke-linecap="round" stroke-linejoin="round"/>
<path d="M158.829 4.3697C158.829 5.00668 158.307 5.52846 157.67 5.52846C157.034 5.52846 156.512 5.00668 156.512 4.3697C156.512 3.73272 157.034 3.21094 157.67 3.21094C158.314 3.21094 158.829 3.72594 158.829 4.3697Z" fill="white" stroke="#263238" stroke-width="0.677638" stroke-miterlimit="10" stroke-linecap="round" stroke-linejoin="round"/>
<path d="M173.981 4.37351C173.981 4.77332 173.656 5.09858 173.256 5.09858C172.857 5.09858 172.531 4.77332 172.531 4.37351C172.531 3.9737 172.857 3.64844 173.256 3.64844C173.656 3.64844 173.981 3.9737 173.981 4.37351Z" fill="white" stroke="#263238" stroke-width="0.677638" stroke-miterlimit="10" stroke-linecap="round" stroke-linejoin="round"/>
<path d="M169.856 4.7741H161.168C160.945 4.7741 160.762 4.59114 160.762 4.36752C160.762 4.1439 160.945 3.96094 161.168 3.96094H169.856C170.079 3.96094 170.262 4.1439 170.262 4.36752C170.269 4.59114 170.086 4.7741 169.856 4.7741Z" fill="white" stroke="#263238" stroke-width="0.677638" stroke-miterlimit="10" stroke-linecap="round" stroke-linejoin="round"/>
<path d="M189.548 81.6407H140.948C136.272 81.6407 132.484 77.8527 132.484 73.177V23.2215C132.484 18.5458 136.272 14.7578 140.948 14.7578H189.541C194.217 14.7578 198.005 18.5458 198.005 23.2215V73.1702C198.005 77.8459 194.217 81.6407 189.548 81.6407Z" fill="white" stroke="#263238" stroke-width="0.677638" stroke-miterlimit="10" stroke-linecap="round" stroke-linejoin="round"/>
<path d="M158.633 43.0337V32.9844" stroke="#263238" stroke-width="0.677638" stroke-miterlimit="10" stroke-linecap="round" stroke-linejoin="round"/>
<path d="M158.633 49.0653V45.0469" stroke="#263238" stroke-width="0.677638" stroke-miterlimit="10" stroke-linecap="round" stroke-linejoin="round"/>
<path d="M158.633 52.8268V50.6719" stroke="#263238" stroke-width="0.677638" stroke-miterlimit="10" stroke-linecap="round" stroke-linejoin="round"/>
<path d="M160.536 34.1571L158.632 31.8125L156.734 34.1571" stroke="#263238" stroke-width="0.677638" stroke-miterlimit="10" stroke-linecap="round" stroke-linejoin="round"/>
<path d="M171.859 39.3228V29.2734" stroke="#263238" stroke-width="0.677638" stroke-miterlimit="10" stroke-linecap="round" stroke-linejoin="round"/>
<path d="M171.859 45.3543V41.3359" stroke="#263238" stroke-width="0.677638" stroke-miterlimit="10" stroke-linecap="round" stroke-linejoin="round"/>
<path d="M171.859 49.1158V46.9609" stroke="#263238" stroke-width="0.677638" stroke-miterlimit="10" stroke-linecap="round" stroke-linejoin="round"/>
<path d="M173.756 30.4452L171.858 28.0938L169.961 30.4452" stroke="#263238" stroke-width="0.677638" stroke-miterlimit="10" stroke-linecap="round" stroke-linejoin="round"/>
<path d="M164.945 32.5572V22.5078" stroke="#263238" stroke-width="0.677638" stroke-miterlimit="10" stroke-linecap="round" stroke-linejoin="round"/>
<path d="M164.945 38.5887V34.5703" stroke="#263238" stroke-width="0.677638" stroke-miterlimit="10" stroke-linecap="round" stroke-linejoin="round"/>
<path d="M164.945 42.3434V40.1953" stroke="#263238" stroke-width="0.677638" stroke-miterlimit="10" stroke-linecap="round" stroke-linejoin="round"/>
<path d="M166.845 23.6795L164.947 21.3281L163.043 23.6795" stroke="#263238" stroke-width="0.677638" stroke-miterlimit="10" stroke-linecap="round" stroke-linejoin="round"/>
<path d="M175.477 49.0798C176.802 43.4284 173.294 37.7733 167.643 36.4487C161.991 35.124 156.336 38.6316 155.012 44.2829C153.687 49.9343 157.195 55.5894 162.846 56.914C168.497 58.2387 174.152 54.7311 175.477 49.0798Z" fill="#16479C" stroke="#263238" stroke-width="0.677638" stroke-miterlimit="10" stroke-linecap="round" stroke-linejoin="round"/>
<path d="M164.523 41.097V40.25H165.987V41.097C167.254 41.3545 167.904 42.3303 167.904 43.8754V44.2345H166.21V43.7602C166.21 42.947 165.885 42.6353 165.316 42.6353C164.747 42.6353 164.421 42.947 164.421 43.7602C164.421 44.5733 164.747 45.1425 165.953 46.1048C167.416 47.2771 167.918 48.1716 167.918 49.4727C167.918 51.0177 167.254 52.007 165.98 52.2713V53.098H164.516V52.2713C163.229 52.0138 162.578 51.0177 162.578 49.4727V48.6934H164.272V49.5878C164.272 50.401 164.631 50.6924 165.201 50.6924C165.77 50.6924 166.129 50.401 166.129 49.5878C166.129 48.7747 165.804 48.1919 164.597 47.2432C163.134 46.0912 162.632 45.1764 162.632 43.8754C162.639 42.3507 163.269 41.3749 164.523 41.097Z" fill="#263238"/>
<path d="M157.06 63.6701V63.3516H157.616V63.6701C158.097 63.7717 158.347 64.1376 158.347 64.7272V64.8627H157.704V64.6865C157.704 64.3748 157.582 64.2596 157.365 64.2596C157.148 64.2596 157.026 64.3748 157.026 64.6865C157.026 64.9982 157.148 65.2083 157.609 65.5742C158.165 66.0215 158.354 66.3603 158.354 66.8549C158.354 67.4445 158.104 67.8172 157.622 67.9188V68.2306H157.06V67.9188C156.572 67.8172 156.328 67.4445 156.328 66.8549V66.5568H156.972V66.8956C156.972 67.2073 157.107 67.3157 157.324 67.3157C157.541 67.3157 157.677 67.2073 157.677 66.8956C157.677 66.5839 157.555 66.3671 157.094 66.0079C156.538 65.5674 156.348 65.2218 156.348 64.7272C156.348 64.1512 156.586 63.7785 157.06 63.6701Z" fill="#263238"/>
<path d="M159.23 64.1671C159.752 64.1671 159.874 63.9164 159.976 63.625H160.43V67.9483H159.752V64.655H159.23V64.1671Z" fill="#263238"/>
<path d="M161.203 64.6702C161.203 63.979 161.569 63.5859 162.233 63.5859C162.897 63.5859 163.263 63.979 163.263 64.6702V66.9199C163.263 67.6111 162.897 68.0041 162.233 68.0041C161.569 68.0041 161.203 67.6111 161.203 66.9199V64.6702ZM161.881 66.9606C161.881 67.2723 162.016 67.3875 162.233 67.3875C162.45 67.3875 162.586 67.2723 162.586 66.9606V64.6295C162.586 64.3178 162.45 64.2026 162.233 64.2026C162.016 64.2026 161.881 64.3178 161.881 64.6295V66.9606Z" fill="#263238"/>
<path d="M163.645 64.6702C163.645 63.979 164.01 63.5859 164.675 63.5859C165.339 63.5859 165.705 63.979 165.705 64.6702V66.9199C165.705 67.6111 165.339 68.0041 164.675 68.0041C164.01 68.0041 163.645 67.6111 163.645 66.9199V64.6702ZM164.322 66.9606C164.322 67.2723 164.458 67.3875 164.675 67.3875C164.891 67.3875 165.027 67.2723 165.027 66.9606V64.6295C165.027 64.3178 164.891 64.2026 164.675 64.2026C164.458 64.2026 164.322 64.3178 164.322 64.6295V66.9606Z" fill="#263238"/>
<path d="M166.094 64.6702C166.094 63.979 166.46 63.5859 167.124 63.5859C167.788 63.5859 168.154 63.979 168.154 64.6702V66.9199C168.154 67.6111 167.788 68.0041 167.124 68.0041C166.46 68.0041 166.094 67.6111 166.094 66.9199V64.6702ZM166.771 66.9606C166.771 67.2723 166.907 67.3875 167.124 67.3875C167.341 67.3875 167.476 67.2723 167.476 66.9606V64.6295C167.476 64.3178 167.341 64.2026 167.124 64.2026C166.907 64.2026 166.771 64.3178 166.771 64.6295V66.9606Z" fill="#263238"/>
<path d="M169.255 67.2969V67.9542H168.598V67.2969H169.255Z" fill="#263238"/>
<path d="M169.691 64.6702C169.691 63.979 170.057 63.5859 170.721 63.5859C171.386 63.5859 171.751 63.979 171.751 64.6702V66.9199C171.751 67.6111 171.386 68.0041 170.721 68.0041C170.057 68.0041 169.691 67.6111 169.691 66.9199V64.6702ZM170.369 66.9606C170.369 67.2723 170.505 67.3875 170.721 67.3875C170.938 67.3875 171.074 67.2723 171.074 66.9606V64.6295C171.074 64.3178 170.938 64.2026 170.721 64.2026C170.505 64.2026 170.369 64.3178 170.369 64.6295V66.9606Z" fill="#263238"/>
<path d="M172.137 64.6702C172.137 63.979 172.503 63.5859 173.167 63.5859C173.831 63.5859 174.197 63.979 174.197 64.6702V66.9199C174.197 67.6111 173.831 68.0041 173.167 68.0041C172.503 68.0041 172.137 67.6111 172.137 66.9199V64.6702ZM172.814 66.9606C172.814 67.2723 172.95 67.3875 173.167 67.3875C173.384 67.3875 173.519 67.2723 173.519 66.9606V64.6295C173.519 64.3178 173.384 64.2026 173.167 64.2026C172.95 64.2026 172.814 64.3178 172.814 64.6295V66.9606Z" fill="#263238"/>
<path d="M153.316 71.9375H153.994V76.2608H153.316V71.9375Z" fill="#263238"/>
<path d="M154.488 71.9375H155.559C156.237 71.9375 156.569 72.317 156.569 73.0082V75.1902C156.569 75.8814 156.237 76.2608 155.559 76.2608H154.488V71.9375ZM155.166 72.5541V75.6374H155.545C155.762 75.6374 155.891 75.529 155.891 75.2173V72.9675C155.891 72.6558 155.762 72.5474 155.545 72.5474H155.166V72.5541Z" fill="#263238"/>
<path d="M157.599 75.6094V76.2667H156.941V75.6094H157.599Z" fill="#263238"/>
<path d="M159.092 72.5151C158.875 72.5151 158.739 72.6303 158.739 72.942V73.4028H158.096V72.9827C158.096 72.2915 158.441 71.8984 159.105 71.8984C159.769 71.8984 160.115 72.2915 160.115 72.9827C160.115 73.5586 159.905 74.0194 159.275 74.6903C158.875 75.124 158.76 75.3273 158.76 75.5577C158.76 75.5916 158.76 75.6187 158.766 75.6526H160.047V76.2692H158.082V75.7406C158.082 75.2595 158.258 74.8936 158.76 74.365C159.281 73.8162 159.424 73.4773 159.424 73.0098C159.444 72.6167 159.309 72.5151 159.092 72.5151Z" fill="#263238"/>
<path d="M160.961 72.4796C161.483 72.4796 161.605 72.2289 161.706 71.9375H162.16V76.2608H161.483V72.9675H160.961V72.4796Z" fill="#263238"/>
<path d="M163.962 76.3166C163.278 76.3166 162.898 75.9236 162.898 75.2324V74.8936C162.898 74.4802 163.02 74.1617 163.319 73.9991V73.9856C163.034 73.8297 162.898 73.5451 162.898 73.1182V72.9827C162.898 72.2915 163.278 71.8984 163.962 71.8984C164.647 71.8984 165.026 72.2915 165.026 72.9827V73.1182C165.026 73.5451 164.884 73.8297 164.606 73.9856V73.9991C164.904 74.1685 165.026 74.4802 165.026 74.8936V75.2324C165.026 75.9168 164.647 76.3166 163.962 76.3166ZM163.583 73.2469C163.583 73.5925 163.745 73.701 163.962 73.701C164.179 73.701 164.349 73.5925 164.349 73.2469V73.003C164.349 72.6167 164.179 72.5083 163.962 72.5083C163.745 72.5083 163.583 72.61 163.583 73.003V73.2469ZM163.962 75.7C164.179 75.7 164.342 75.5916 164.349 75.2121V74.8123C164.349 74.4735 164.206 74.3244 163.962 74.3244C163.718 74.3244 163.583 74.4735 163.583 74.8123V75.2121C163.583 75.5916 163.745 75.7 163.962 75.7Z" fill="#263238"/>
<path d="M165.852 72.4796C166.373 72.4796 166.495 72.2289 166.597 71.9375H167.051V76.2608H166.373V72.9675H165.852V72.4796Z" fill="#263238"/>
<path d="M169.877 75.1928C169.877 75.9179 169.545 76.3177 168.841 76.3177C168.177 76.3177 167.831 75.9246 167.831 75.2335V75.125H168.475V75.2809C168.475 75.5926 168.61 75.7078 168.827 75.7078C169.071 75.7078 169.207 75.5926 169.207 75.1792V74.3932H169.193C169.078 74.6371 168.881 74.7727 168.576 74.7727C168.075 74.7727 167.824 74.4203 167.824 73.7833V72.9905C167.824 72.2993 168.19 71.9062 168.854 71.9062C169.518 71.9062 169.884 72.2993 169.884 72.9905V75.1928H169.877ZM169.193 73.7155V72.9363C169.193 72.6245 169.058 72.5161 168.841 72.5161C168.624 72.5161 168.488 72.6245 168.488 72.9363V73.7155C168.488 74.0273 168.624 74.1425 168.841 74.1425C169.058 74.1425 169.193 74.0273 169.193 73.7155Z" fill="#263238"/>
<path d="M170.937 74.8649V75.2647C170.937 75.5764 171.072 75.6848 171.289 75.6848C171.506 75.6848 171.641 75.5764 171.641 75.2647V74.316C171.641 74.0043 171.506 73.8891 171.289 73.8891C171.072 73.8891 170.937 74.0043 170.937 74.316V74.4448H170.293L170.415 71.9375H172.204V72.5541H171.018L170.964 73.5842H170.977C171.099 73.3809 171.289 73.2724 171.567 73.2724C172.068 73.2724 172.319 73.6248 172.319 74.2618V75.224C172.319 75.9152 171.974 76.3083 171.309 76.3083C170.645 76.3083 170.3 75.9152 170.3 75.224V74.8649H170.937Z" fill="#263238"/>
<path d="M172.733 73.0155C172.733 72.2837 173.065 71.8906 173.77 71.8906C174.434 71.8906 174.78 72.2837 174.78 72.9748V73.0833H174.136V72.9274C174.136 72.6157 174.001 72.5005 173.784 72.5005C173.54 72.5005 173.404 72.6157 173.404 73.0291V73.8151H173.418C173.533 73.5712 173.729 73.4356 174.034 73.4356C174.536 73.4356 174.787 73.788 174.787 74.425V75.2178C174.787 75.909 174.421 76.302 173.757 76.302C173.092 76.302 172.727 75.909 172.727 75.2178V73.0155H172.733ZM173.411 74.4928V75.272C173.411 75.5838 173.547 75.6922 173.763 75.6922C173.98 75.6922 174.116 75.5838 174.116 75.272V74.4928C174.116 74.181 173.98 74.0658 173.763 74.0658C173.547 74.0658 173.411 74.181 173.411 74.4928Z" fill="#263238"/>
<path d="M177.217 71.9443V72.5338L176.214 76.2608H175.536L176.532 72.5541H175.184V71.9375H177.217V71.9443Z" fill="#263238"/>
<path d="M164.386 69.0312H165.179V69.2616H164.907V70.6644H164.65V69.2616H164.379V69.0312H164.386Z" fill="#263238"/>
<path d="M165.273 69.429C165.273 69.1647 165.409 69.0156 165.666 69.0156C165.917 69.0156 166.06 69.1647 166.06 69.429V70.2828C166.06 70.5471 165.924 70.6962 165.666 70.6962C165.416 70.6962 165.273 70.5471 165.273 70.2828V69.429ZM165.531 70.2964C165.531 70.4116 165.585 70.459 165.666 70.459C165.748 70.459 165.802 70.4116 165.802 70.2964V69.4154C165.802 69.3002 165.748 69.2528 165.666 69.2528C165.585 69.2528 165.531 69.3002 165.531 69.4154V70.2964Z" fill="#263238"/>
<path d="M159.807 91.5391C160.776 91.5391 161.278 92.1218 161.278 93.1383V93.3348H160.336V93.0705C160.336 92.6165 160.153 92.4471 159.834 92.4471C159.516 92.4471 159.333 92.6165 159.333 93.0705C159.333 93.5313 159.529 93.8769 160.187 94.4461C161.02 95.178 161.284 95.7065 161.284 96.4316C161.284 97.4481 160.776 98.0308 159.8 98.0308C158.818 98.0308 158.316 97.4481 158.316 96.4316V96.0386H159.258V96.4926C159.258 96.9466 159.455 97.1092 159.773 97.1092C160.092 97.1092 160.288 96.9466 160.288 96.4926C160.288 96.0318 160.092 95.6862 159.435 95.117C158.601 94.3851 158.337 93.8566 158.337 93.1315C158.337 92.1218 158.838 91.5391 159.807 91.5391Z" fill="white"/>
<path d="M162.848 94.2939H164.217V95.2019H162.848V97.0586H164.569V97.9667H161.852V91.6172H164.569V92.5252H162.848V94.2939Z" fill="white"/>
<path d="M166.094 93.3645H166.074V97.9588H165.18V91.6094H166.433L167.443 95.4109H167.463V91.6094H168.351V97.9588H167.328L166.094 93.3645Z" fill="white"/>
<path d="M169.066 91.6172H170.645C171.641 91.6172 172.129 92.1728 172.129 93.1825V96.3945C172.129 97.411 171.641 97.9667 170.645 97.9667H169.066V91.6172ZM170.063 92.5252V97.0586H170.625C170.943 97.0586 171.133 96.896 171.133 96.442V93.1419C171.133 92.6879 170.943 92.5252 170.625 92.5252H170.063Z" fill="white"/>
<path d="M120.594 78.8516C120.594 78.8516 124.965 80.2001 126.496 84.0016" stroke="#263238" stroke-width="0.677638" stroke-miterlimit="10" stroke-linecap="round" stroke-linejoin="round"/>
<path d="M100.798 199.233C101.286 190.79 101.604 182.164 102.024 175.225C102.898 160.825 103.556 151.168 104.864 141.336C106.171 131.503 105.954 116.656 106.612 111.466C107.269 106.275 109.221 105.184 110.766 99.0174C112.311 92.8577 113.693 80.5857 116.227 78.8577C118.762 77.1297 126.494 73.8906 126.494 73.8906V108.647C131.081 115.701 136.543 117.449 136.543 117.449C140.04 107.332 139.599 103.314 143.096 99.6002C146.592 95.8868 149.113 91.0281 154.595 93.061C157.211 94.03 158.607 95.0126 157.292 103.876C155.985 112.74 153.362 115.518 153.362 115.518C152.928 118.547 153.579 127.349 154.67 131.849C155.761 136.355 151.614 148.322 149.642 155.966C147.677 163.61 137.187 179.107 137.187 179.107C137.187 179.107 136.753 187.646 137.621 196.604C137.702 197.424 137.803 198.305 137.919 199.227L138.61 223.018L100.777 222.307V199.233H100.798Z" fill="white"/>
<path opacity="0.4" d="M156.523 95.6677C156.313 94.9087 156.346 94.414 156.523 94.0955C156.008 93.6212 155.357 93.3366 154.598 93.0655C149.109 91.0326 146.588 95.8913 143.092 99.6047C142.767 99.9503 142.475 100.303 142.211 100.662C145.376 99.4692 149.523 99.4895 151.19 101.807C153.297 104.701 157.573 99.4557 156.523 95.6677Z" fill="#80A0D8"/>
<path opacity="0.4" d="M132.818 190.703L131.09 197.181C131.09 197.181 133.523 194.796 137.168 189.009C136.992 183.357 137.209 179.115 137.209 179.115C137.209 179.115 147.699 163.618 149.664 155.974C151.629 148.324 155.783 136.357 154.692 131.857C153.601 127.351 152.944 118.548 153.384 115.519C153.384 115.519 153.933 114.936 154.651 113.446C154.177 112.985 153.621 112.612 153.005 112.477C153.005 112.477 150.199 119.117 150.877 127.866C151.555 136.6 150.057 137.332 147.163 148.69C144.27 160.047 139.465 172.915 137.209 175.219C134.946 177.523 133.97 187.918 132.818 190.703Z" fill="#80A0D8"/>
<path opacity="0.4" d="M128.681 114.162C128.681 114.162 125.232 114.697 123.85 115.517C123.85 115.517 130.579 117.272 131.012 119.142C131.446 121.006 132.889 122.957 135.444 120.674C135.444 120.674 135.58 119.244 135.844 117.164C134.218 116.438 130.098 114.168 126.499 108.646V73.8828C126.499 73.8828 122.677 75.482 119.526 77.0338C121.864 77.3455 124.256 78.0638 125.185 79.6427C125.185 79.6427 124.48 82.5566 121.254 83.9999C118.767 85.118 121.254 103.868 121.254 103.868C121.254 103.868 117.182 104.871 115.867 108.646C115.867 108.646 122.569 109.33 125.334 111.458C128.099 113.586 128.681 114.162 128.681 114.162Z" fill="#80A0D8"/>
<path opacity="0.4" d="M102.029 175.221C101.683 180.845 101.419 187.567 101.066 194.411C101.927 181.407 104.543 159.079 104.543 159.079C104.543 159.079 106.881 167.333 107.057 166.459C107.579 163.877 105.966 149.267 106.108 144.063C106.176 141.705 106.006 135.66 105.796 129.758C105.607 133.81 105.336 137.876 104.875 141.325C103.553 151.164 102.896 160.827 102.029 175.221Z" fill="#80A0D8"/>
<path d="M100.801 223.919V199.226C101.289 190.782 101.607 182.156 102.027 175.217C102.901 160.817 103.559 151.161 104.867 141.328C106.174 131.496 105.958 116.649 106.615 111.458C107.272 106.267 109.224 105.176 110.769 99.0096C112.314 92.8499 113.696 80.5779 116.231 78.8499C118.765 77.1219 126.497 73.8828 126.497 73.8828V108.639C131.084 115.693 136.546 117.441 136.546 117.441C140.043 107.324 139.602 103.306 143.099 99.5924C146.596 95.8789 149.116 91.0203 154.598 93.0532C157.214 94.0222 158.61 95.0048 157.295 103.868C155.988 112.732 153.365 115.51 153.365 115.51C152.931 118.539 153.582 127.342 154.673 131.841C155.764 136.347 151.617 148.315 149.645 155.958C147.68 163.602 137.19 179.1 137.19 179.1C137.19 179.1 136.756 187.638 137.624 196.596C137.705 197.416 137.807 198.297 137.922 199.219C137.922 199.219 138.274 214.581 139.948 223.912" stroke="#263238" stroke-width="0.677638" stroke-miterlimit="10" stroke-linecap="round" stroke-linejoin="round"/>
<path d="M136.551 117.445C136.551 117.445 135.46 122.318 133.272 123.409C131.09 124.5 127.945 123.409 127.945 123.409" stroke="#263238" stroke-width="0.677638" stroke-miterlimit="10" stroke-linecap="round" stroke-linejoin="round"/>
<path d="M126.503 108.653C126.503 108.653 124.321 103.794 117.328 108.009" stroke="#263238" stroke-width="0.677638" stroke-miterlimit="10" stroke-linecap="round" stroke-linejoin="round"/>
<path d="M126.504 89.0214C126.504 89.0214 126.07 86.4464 122.465 85.7891" stroke="#263238" stroke-width="0.677638" stroke-miterlimit="10" stroke-linecap="round" stroke-linejoin="round"/>
<path d="M137.21 179.117C133.056 184.376 133.849 189.404 132.25 192.026C130.65 194.649 130.874 204.041 130.874 204.041" stroke="#263238" stroke-width="0.677638" stroke-miterlimit="10" stroke-linecap="round" stroke-linejoin="round"/>
<path d="M107.055 128.633C107.055 128.633 107.055 138.953 107.055 146.915C107.055 154.885 108.586 162.528 108.586 162.528" stroke="#263238" stroke-width="0.677638" stroke-miterlimit="10" stroke-linecap="round" stroke-linejoin="round"/>
<path d="M153.37 115.512C153.37 115.512 153.37 112.388 152.496 111.453" stroke="#263238" stroke-width="0.677638" stroke-miterlimit="10" stroke-linecap="round" stroke-linejoin="round"/>
<path d="M150.976 105.71C150.976 105.71 149.038 99.1978 143.359 102.037" stroke="#263238" stroke-width="0.677638" stroke-miterlimit="10" stroke-linecap="round" stroke-linejoin="round"/>
<path d="M133.47 115.843C129.255 115.931 124.972 114.06 122.465 116.337" stroke="#263238" stroke-width="0.677638" stroke-miterlimit="10" stroke-linecap="round" stroke-linejoin="round"/>
<path d="M100.181 216.78H99.043V190.867H100.181C100.92 190.867 101.523 191.47 101.523 192.209V215.445C101.516 216.184 100.92 216.78 100.181 216.78Z" fill="#263238"/>
<path d="M99.043 194.219C99.043 194.219 119.074 188.981 138.299 194.951C138.908 195.141 139.322 195.717 139.322 196.354V208.646C139.322 209.107 138.908 209.453 138.454 209.371C134.328 208.626 116.18 205.759 100.032 209.534L99.043 194.219Z" fill="#263238"/>
<path d="M99.913 193.995V191.224C99.913 190.309 99.1743 189.57 98.2595 189.57H96.0165C95.4473 189.57 94.9255 189.882 94.6545 190.377L92.6758 193.995V215.171L94.6274 217.55C94.9188 217.909 95.3592 218.119 95.8268 218.119H98.2595C99.1743 218.119 99.913 217.381 99.913 216.466V193.995Z" fill="#16479C" stroke="#263238" stroke-width="0.677638" stroke-miterlimit="10" stroke-linecap="round" stroke-linejoin="round"/>
<path d="M98.4905 192.62L103.065 191.773C103.607 191.671 104.108 192.092 104.108 192.64V195.276L102.597 196.401V204.98H104.108V209.453C104.108 209.968 103.742 210.415 103.241 210.517L98.8971 211.418C98.2466 211.553 97.6367 211.052 97.6367 210.388V193.65C97.6367 193.149 97.9959 192.715 98.4905 192.62Z" fill="#16479C" stroke="#263238" stroke-width="0.677638" stroke-miterlimit="10" stroke-linecap="round" stroke-linejoin="round"/>
<path d="M98.6641 210.257L102.391 209.403C102.669 209.342 102.865 209.091 102.865 208.806V206.008" stroke="#263238" stroke-width="0.677638" stroke-miterlimit="10" stroke-linecap="round" stroke-linejoin="round"/>
<path d="M101.34 204.854V195.672L102.837 194.534V192.812" stroke="#263238" stroke-width="0.677638" stroke-miterlimit="10" stroke-linecap="round" stroke-linejoin="round"/>
<path d="M95.2891 191.242V215.773" stroke="#263238" stroke-width="0.677638" stroke-miterlimit="10" stroke-linecap="round" stroke-linejoin="round"/>
<path d="M113.386 200.821C113.013 200.821 112.715 200.523 112.715 200.15V198.687C112.715 198.314 113.013 198.016 113.386 198.016C113.758 198.016 114.057 198.314 114.057 198.687V200.15C114.057 200.523 113.758 200.821 113.386 200.821Z" fill="white"/>
<path d="M123.706 201.087C123.333 201.087 123.035 200.789 123.035 200.416V198.952C123.035 198.579 123.333 198.281 123.706 198.281C124.079 198.281 124.377 198.579 124.377 198.952V200.416C124.377 200.789 124.079 201.087 123.706 201.087Z" fill="white"/>
<path d="M132.886 202.219C132.513 202.219 132.215 201.921 132.215 201.549V200.085C132.215 199.712 132.513 199.414 132.886 199.414C133.258 199.414 133.557 199.712 133.557 200.085V201.549C133.557 201.921 133.258 202.219 132.886 202.219Z" fill="white"/>
</g>
<defs>
<clipPath id="clip0_1928_112090">
<rect width="215.611" height="206.526" fill="white" transform="translate(256.918 215.758) rotate(166.859)"/>
</clipPath>
<clipPath id="clip1_1928_112090">
<rect width="112" height="224.264" fill="white" transform="translate(92.3398)"/>
</clipPath>
</defs>
</svg>
