<svg width="231" height="205" viewBox="0 0 231 205" fill="none" xmlns="http://www.w3.org/2000/svg">
<circle cx="115.501" cy="104.325" r="93.1453" fill="#16479C"/>
<path d="M109.929 125.134L186.818 25.1561C189.207 22.0494 192.248 20.4961 195.94 20.4961C199.633 20.4961 202.673 22.0494 205.063 25.1561C207.452 28.2627 208.646 32.2166 208.646 37.0178C208.646 41.819 207.452 45.773 205.063 48.8796L119.052 160.719C116.445 164.108 113.404 165.803 109.929 165.803C106.454 165.803 103.413 164.108 100.807 160.719L66.9236 116.661C64.5344 113.554 63.3398 109.601 63.3398 104.799C63.3398 99.9981 64.5344 96.0442 66.9236 92.9376C69.3128 89.8309 72.3536 88.2776 76.046 88.2776C79.7384 88.2776 82.7792 89.8309 85.1684 92.9376L109.929 125.134Z" fill="#E6F2FF"/>
<circle cx="16.7661" cy="175.106" r="16.7661" fill="#16479C"/>
<circle cx="9.31453" cy="134.123" r="9.31453" fill="#16479C"/>
<circle cx="50.2989" cy="195.604" r="9.31453" fill="#16479C"/>
<circle cx="214.234" cy="29.812" r="16.7661" transform="rotate(180 214.234 29.812)" fill="#16479C"/>
<circle cx="221.685" cy="70.7948" r="9.31453" transform="rotate(180 221.685 70.7948)" fill="#16479C"/>
<circle cx="180.701" cy="9.31438" r="9.31453" transform="rotate(180 180.701 9.31438)" fill="#16479C"/>
</svg>
