<svg width="20" height="20" viewBox="0 0 20 20" fill="none" xmlns="http://www.w3.org/2000/svg">
<g clip-path="url(#clip0_8539_5231)">
<path d="M10 -0.0214844C4.4744 -0.0214844 -0.0218506 4.47352 -0.0218506 9.99977C-0.0218506 15.526 4.4744 20.021 10 20.021C15.5256 20.021 20.0219 15.526 20.0219 9.99977C20.0219 4.47352 15.5256 -0.0214844 10 -0.0214844ZM10 19.3535C4.84252 19.3535 0.646899 15.1573 0.646899 9.99977C0.646899 4.84227 4.84252 0.646016 10 0.646016C15.1575 0.646016 19.3531 4.84227 19.3531 9.99977C19.3531 15.1573 15.1575 19.3535 10 19.3535Z" fill="black"/>
<path d="M10.3125 3.78305C10.4042 3.78305 10.4921 3.74663 10.5569 3.68182C10.6218 3.617 10.6582 3.52909 10.6582 3.43742V2.18742C10.6582 2.09576 10.6218 2.00785 10.5569 1.94303C10.4921 1.87821 10.4042 1.8418 10.3125 1.8418C10.2209 1.8418 10.133 1.87821 10.0682 1.94303C10.0033 2.00785 9.96692 2.09576 9.96692 2.18742V3.43742C9.96692 3.62867 10.1219 3.78305 10.3125 3.78305ZM3.43754 9.3418H2.18754C2.09588 9.3418 2.00797 9.37821 1.94315 9.44303C1.87833 9.50785 1.84192 9.59576 1.84192 9.68742C1.84192 9.77909 1.87833 9.867 1.94315 9.93182C2.00797 9.99663 2.09588 10.033 2.18754 10.033H3.43754C3.48293 10.033 3.52788 10.0241 3.56981 10.0067C3.61174 9.98937 3.64984 9.96391 3.68194 9.93182C3.71403 9.89972 3.73949 9.86162 3.75686 9.81969C3.77423 9.77775 3.78317 9.73281 3.78317 9.68742C3.78317 9.64203 3.77423 9.59709 3.75686 9.55516C3.73949 9.51322 3.71403 9.47512 3.68194 9.44303C3.64984 9.41093 3.61174 9.38548 3.56981 9.36811C3.52788 9.35074 3.48293 9.3418 3.43754 9.3418ZM16.2169 9.68742C16.2169 9.87867 16.3719 10.033 16.5625 10.033H17.8125C17.8579 10.033 17.9029 10.0241 17.9448 10.0067C17.9867 9.98937 18.0248 9.96391 18.0569 9.93182C18.089 9.89972 18.1145 9.86162 18.1319 9.81969C18.1492 9.77775 18.1582 9.73281 18.1582 9.68742C18.1582 9.64203 18.1492 9.59709 18.1319 9.55516C18.1145 9.51322 18.089 9.47512 18.0569 9.44303C18.0248 9.41093 17.9867 9.38548 17.9448 9.36811C17.9029 9.35074 17.8579 9.3418 17.8125 9.3418H16.5625C16.4709 9.3418 16.383 9.37821 16.3182 9.44303C16.2533 9.50785 16.2169 9.59576 16.2169 9.68742ZM5.35942 6.32992C5.42778 6.33009 5.49464 6.30995 5.55153 6.27205C5.60843 6.23415 5.65278 6.18021 5.67896 6.11706C5.70514 6.05392 5.71197 5.98442 5.69859 5.91738C5.68521 5.85035 5.65221 5.7888 5.60379 5.74055L4.61942 4.75555C4.58737 4.7235 4.54932 4.69807 4.50744 4.68073C4.46557 4.66338 4.42068 4.65445 4.37536 4.65445C4.33003 4.65445 4.28515 4.66338 4.24327 4.68073C4.20139 4.69807 4.16334 4.7235 4.13129 4.75555C4.09924 4.7876 4.07382 4.82565 4.05647 4.86752C4.03913 4.9094 4.0302 4.95428 4.0302 4.99961C4.0302 5.04494 4.03913 5.08982 4.05647 5.1317C4.07382 5.17357 4.09924 5.21162 4.13129 5.24367L5.11567 6.22805C5.14747 6.2604 5.18541 6.28608 5.22727 6.30358C5.26912 6.32107 5.31405 6.33003 5.35942 6.32992ZM14.9319 13.193C14.8672 13.1283 14.7794 13.092 14.6879 13.092C14.5963 13.092 14.5085 13.1283 14.4438 13.193C14.3791 13.2578 14.3427 13.3456 14.3427 13.4371C14.3427 13.5287 14.3791 13.6164 14.4438 13.6812L15.3813 14.6187C15.4133 14.651 15.4513 14.6766 15.4933 14.6941C15.5352 14.7117 15.5802 14.7207 15.6257 14.7207C15.6711 14.7207 15.7161 14.7117 15.7581 14.6941C15.8 14.6766 15.8381 14.651 15.87 14.6187C15.9021 14.5866 15.9276 14.5486 15.9449 14.5067C15.9623 14.4648 15.9712 14.4199 15.9712 14.3746C15.9712 14.3293 15.9623 14.2844 15.9449 14.2425C15.9276 14.2006 15.9021 14.1626 15.87 14.1305L14.9319 13.193ZM15.5569 4.9318C15.589 4.89975 15.6144 4.8617 15.6317 4.81982C15.6491 4.77794 15.658 4.73306 15.658 4.68773C15.658 4.64241 15.6491 4.59753 15.6317 4.55565C15.6144 4.51377 15.589 4.47572 15.5569 4.44367C15.5249 4.41162 15.4868 4.3862 15.4449 4.36885C15.4031 4.35151 15.3582 4.34258 15.3129 4.34258C15.2675 4.34258 15.2226 4.35151 15.1808 4.36885C15.1389 4.3862 15.1008 4.41162 15.0688 4.44367L14.0844 5.42805C14.0524 5.46014 14.027 5.49823 14.0096 5.54014C13.9923 5.58206 13.9834 5.62697 13.9834 5.67233C13.9834 5.71769 13.9924 5.76259 14.0098 5.80448C14.0272 5.84638 14.0526 5.88443 14.0847 5.91648C14.1168 5.94854 14.1549 5.97395 14.1968 5.99128C14.2387 6.00861 14.2837 6.01752 14.329 6.01749C14.3744 6.01746 14.4193 6.0085 14.4612 5.99111C14.5031 5.97373 14.5411 5.94826 14.5732 5.91617L15.5569 4.9318ZM5.38067 13.5055L4.44317 14.443C4.41112 14.4751 4.3857 14.5132 4.36837 14.5551C4.35104 14.5971 4.34214 14.642 4.34217 14.6873C4.3422 14.7327 4.35116 14.7776 4.36854 14.8195C4.38593 14.8614 4.41139 14.8994 4.44348 14.9315C4.47557 14.9635 4.51366 14.989 4.55558 15.0063C4.59749 15.0236 4.64241 15.0325 4.68776 15.0325C4.73312 15.0325 4.77803 15.0235 4.81992 15.0061C4.86181 14.9887 4.89987 14.9633 4.93192 14.9312L5.86942 13.9937C5.90147 13.9616 5.92689 13.9235 5.94422 13.8816C5.96155 13.8397 5.97045 13.7947 5.97042 13.7494C5.97039 13.704 5.96143 13.6591 5.94405 13.6172C5.92666 13.5753 5.9012 13.5373 5.86911 13.5052C5.83701 13.4732 5.79892 13.4478 5.75701 13.4304C5.7151 13.4131 5.67018 13.4042 5.62482 13.4042C5.57947 13.4043 5.53456 13.4132 5.49267 13.4306C5.45078 13.448 5.41272 13.4735 5.38067 13.5055ZM12.1875 14.9999H7.81254C7.25692 14.9787 6.85317 15.3818 6.85317 15.9374V16.5355C6.85317 17.0968 7.27442 17.5374 7.81254 17.4999H12.1875C12.725 17.5374 13.1469 17.0968 13.1469 16.5355V15.9374C13.1469 15.3818 12.7432 14.9787 12.1875 14.9999ZM12.4782 16.5355C12.4782 16.6962 12.3869 16.8693 12.1875 16.8905H7.81254C7.61254 16.8693 7.52192 16.6955 7.52192 16.8749V16.2768C7.52192 15.7524 7.62754 15.6462 7.81254 15.6249H12.1875C12.3725 15.6462 12.4782 15.7524 12.4782 15.9374V16.5355ZM10 11.6668C10.445 11.6668 10.8638 11.4937 11.1782 11.1787C11.4494 10.9069 11.6186 10.55 11.6573 10.168C11.6961 9.78605 11.6019 9.40242 11.3907 9.0818L13.0488 7.42367C13.1115 7.36101 13.1467 7.27603 13.1467 7.18742C13.1467 7.09881 13.1115 7.01383 13.0488 6.95117C12.9861 6.88851 12.9012 6.85331 12.8125 6.85331C12.7239 6.85331 12.639 6.88851 12.5763 6.95117L10.9163 8.61117C10.2757 8.2018 9.37067 8.2718 8.82192 8.82117C8.58941 9.05448 8.43118 9.35141 8.36717 9.67451C8.30316 9.99762 8.33624 10.3324 8.46224 10.6368C8.58824 10.9411 8.80151 11.2013 9.07518 11.3846C9.34885 11.5679 9.67066 11.6661 10 11.6668ZM9.41129 9.41117C9.56817 9.25367 9.77754 9.1668 10 9.1668C10.2225 9.1668 10.4319 9.25367 10.5894 9.41117C10.9144 9.73617 10.9144 10.2643 10.5894 10.5893C10.275 10.9043 9.72629 10.9043 9.41129 10.5893C9.25523 10.433 9.16758 10.2211 9.16758 10.0002C9.16758 9.77935 9.25523 9.56749 9.41129 9.41117Z" fill="black"/>
</g>
<defs>
<clipPath id="clip0_8539_5231">
<rect width="20" height="20" fill="white"/>
</clipPath>
</defs>
</svg>
