<svg width="20" height="20" viewBox="0 0 20 20" fill="none" xmlns="http://www.w3.org/2000/svg">
<path d="M15 3.33366H1.66665V1.66699H15V3.33366ZM10.8666 8.33366H2.53331L3.03331 5.83366H13.6333L13.9666 7.50032C14.5833 7.53366 15.175 7.65866 15.7416 7.88366L15 4.16699H1.66665L0.833313 8.33366V10.0003H1.66665V15.0003H8.74998C8.47498 14.3337 8.33331 13.6253 8.33331 12.917V13.3337H3.33331V10.0003H8.33331V12.917C8.33331 11.5337 8.86665 10.142 9.91665 9.08366C10.2166 8.79199 10.5333 8.54199 10.8666 8.33366ZM19.4916 17.5003L18.3333 18.6587L15.7333 16.1003C15.1583 16.4587 14.475 16.667 13.75 16.667C11.6666 16.667 9.99998 15.0003 9.99998 12.917C9.99998 10.8337 11.6666 9.16699 13.75 9.16699C15.8333 9.16699 17.5 10.8337 17.5 12.917C17.5 13.6503 17.2916 14.342 16.925 14.917L19.4916 17.5003ZM15.8333 12.917C15.8333 12.3645 15.6138 11.8346 15.2231 11.4439C14.8324 11.0532 14.3025 10.8337 13.75 10.8337C13.1974 10.8337 12.6675 11.0532 12.2768 11.4439C11.8861 11.8346 11.6666 12.3645 11.6666 12.917C11.6666 13.4695 11.8861 13.9994 12.2768 14.3901C12.6675 14.7808 13.1974 15.0003 13.75 15.0003C14.3025 15.0003 14.8324 14.7808 15.2231 14.3901C15.6138 13.9994 15.8333 13.4695 15.8333 12.917Z" fill="black"/>
</svg>
