<svg width="20" height="20" viewBox="0 0 20 20" fill="none" xmlns="http://www.w3.org/2000/svg">
<path d="M10 10.8333C9.76389 10.8333 9.56583 10.7533 9.40583 10.5933C9.24583 10.4333 9.16611 10.2356 9.16667 10V3.33334C9.16667 3.09723 9.24667 2.89917 9.40667 2.73917C9.56667 2.57917 9.76444 2.49945 10 2.5C10.2361 2.5 10.4342 2.58 10.5942 2.74C10.7542 2.9 10.8339 3.09778 10.8333 3.33334V10C10.8333 10.2361 10.7533 10.4342 10.5933 10.5942C10.4333 10.7542 10.2356 10.8339 10 10.8333ZM10 17.5C8.95833 17.5 7.9825 17.3019 7.0725 16.9058C6.1625 16.5097 5.37083 15.9753 4.6975 15.3025C4.02417 14.6286 3.48972 13.8369 3.09417 12.9275C2.69861 12.0181 2.50056 11.0422 2.5 10C2.5 9.04167 2.67361 8.125 3.02083 7.25C3.36806 6.375 3.86806 5.58334 4.52083 4.875C4.67361 4.70834 4.86806 4.625 5.10417 4.625C5.34028 4.625 5.54167 4.70834 5.70833 4.875C5.86111 5.02778 5.93056 5.21889 5.91667 5.44834C5.90278 5.67778 5.81944 5.8825 5.66667 6.0625C5.18056 6.60417 4.80917 7.21195 4.5525 7.88584C4.29583 8.55973 4.16722 9.26445 4.16667 10C4.16667 11.625 4.73278 13.0036 5.865 14.1358C6.99722 15.2681 8.37556 15.8339 10 15.8333C11.625 15.8333 13.0036 15.2672 14.1358 14.135C15.2681 13.0028 15.8339 11.6244 15.8333 10C15.8333 9.26389 15.7014 8.55195 15.4375 7.86417C15.1736 7.17639 14.7986 6.56195 14.3125 6.02084C14.1597 5.85417 14.0797 5.65973 14.0725 5.4375C14.0653 5.21528 14.1383 5.02778 14.2917 4.875C14.4583 4.70834 14.6597 4.625 14.8958 4.625C15.1319 4.625 15.3264 4.70834 15.4792 4.875C16.1319 5.58334 16.6319 6.375 16.9792 7.25C17.3264 8.125 17.5 9.04167 17.5 10C17.5 11.0417 17.3019 12.0175 16.9058 12.9275C16.5097 13.8375 15.9753 14.6292 15.3025 15.3025C14.6286 15.9758 13.8369 16.5106 12.9275 16.9067C12.0181 17.3028 11.0422 17.5006 10 17.5Z" fill="#636B78"/>
</svg>
