<svg width="20" height="20" viewBox="0 0 20 20" fill="none" xmlns="http://www.w3.org/2000/svg">
<g clip-path="url(#clip0_8539_5260)">
<path d="M18.0611 15.4613C17.5254 14.9837 17.0564 14.4362 16.6667 13.8336C16.2412 13.0016 15.9863 12.0931 15.9167 11.1613V8.41688C15.9204 6.95334 15.3895 5.53881 14.4238 4.43909C13.458 3.33937 12.124 2.63014 10.6722 2.44466V1.72799C10.6722 1.53129 10.5941 1.34265 10.455 1.20356C10.3159 1.06447 10.1273 0.986328 9.93057 0.986328C9.73387 0.986328 9.54522 1.06447 9.40613 1.20356C9.26704 1.34265 9.1889 1.53129 9.1889 1.72799V2.45577C7.75016 2.65462 6.43222 3.36814 5.4792 4.46417C4.52617 5.56019 4.00264 6.96446 4.00557 8.41688V11.1613C3.93599 12.0931 3.681 13.0016 3.25557 13.8336C2.87273 14.4349 2.41123 14.9823 1.88335 15.4613C1.82409 15.5134 1.77659 15.5775 1.74402 15.6493C1.71145 15.7212 1.69456 15.7991 1.69446 15.878V16.6336C1.69446 16.7809 1.75299 16.9222 1.85718 17.0264C1.96136 17.1306 2.10267 17.1891 2.25001 17.1891H17.6945C17.8418 17.1891 17.9831 17.1306 18.0873 17.0264C18.1915 16.9222 18.25 16.7809 18.25 16.6336V15.878C18.2499 15.7991 18.233 15.7212 18.2005 15.6493C18.1679 15.5775 18.1204 15.5134 18.0611 15.4613ZM2.85001 16.078C3.36691 15.5787 3.82201 15.0191 4.20557 14.4113C4.74147 13.4066 5.05414 12.298 5.12224 11.1613V8.41688C5.1002 7.76579 5.20942 7.11693 5.44337 6.50892C5.67733 5.90092 6.03124 5.34621 6.48404 4.87783C6.93684 4.40945 7.47926 4.03698 8.079 3.78259C8.67875 3.52821 9.32355 3.39711 9.97501 3.39711C10.6265 3.39711 11.2713 3.52821 11.871 3.78259C12.4708 4.03698 13.0132 4.40945 13.466 4.87783C13.9188 5.34621 14.2727 5.90092 14.5067 6.50892C14.7406 7.11693 14.8498 7.76579 14.8278 8.41688V11.1613C14.8959 12.298 15.2086 13.4066 15.7445 14.4113C16.128 15.0191 16.5831 15.5787 17.1 16.078H2.85001Z" fill="#636B78"/>
<path d="M10 19.044C10.35 19.036 10.6858 18.9044 10.9481 18.6726C11.2104 18.4408 11.3823 18.1237 11.4333 17.7773H8.51111C8.56359 18.1331 8.74351 18.4576 9.01739 18.6906C9.29126 18.9236 9.64046 19.0492 10 19.044Z" fill="#636B78"/>
</g>
<defs>
<clipPath id="clip0_8539_5260">
<rect width="20" height="20" fill="white"/>
</clipPath>
</defs>
</svg>
