<svg width="20" height="20" viewBox="0 0 20 20" fill="none" xmlns="http://www.w3.org/2000/svg">
<path d="M10.8917 8.67472C11.3979 7.96744 11.6701 7.11948 11.6701 6.24972C11.6701 5.37996 11.3979 4.532 10.8917 3.82472C11.3654 3.50135 11.9264 3.32986 12.5 3.33305C13.2736 3.33305 14.0154 3.64034 14.5624 4.18732C15.1094 4.7343 15.4167 5.47617 15.4167 6.24972C15.4167 7.02327 15.1094 7.76513 14.5624 8.31211C14.0154 8.85909 13.2736 9.16639 12.5 9.16639C11.9264 9.16958 11.3654 8.99809 10.8917 8.67472ZM4.58335 6.24972C4.58335 5.67286 4.75441 5.10895 5.0749 4.62931C5.39539 4.14966 5.85091 3.77583 6.38386 3.55507C6.91681 3.33431 7.50326 3.27655 8.06903 3.38909C8.63481 3.50163 9.15451 3.77942 9.56241 4.18732C9.97032 4.59523 10.2481 5.11493 10.3606 5.68071C10.4732 6.24648 10.4154 6.83293 10.1947 7.36588C9.97391 7.89883 9.60008 8.35435 9.12043 8.67484C8.64079 8.99533 8.07688 9.16639 7.50002 9.16639C6.72647 9.16639 5.98461 8.85909 5.43763 8.31211C4.89064 7.76513 4.58335 7.02327 4.58335 6.24972ZM6.25002 6.24972C6.25002 6.49695 6.32333 6.73862 6.46068 6.94418C6.59804 7.14974 6.79326 7.30996 7.02167 7.40457C7.25007 7.49918 7.50141 7.52393 7.74388 7.4757C7.98636 7.42747 8.20909 7.30842 8.3839 7.1336C8.55872 6.95879 8.67777 6.73606 8.726 6.49358C8.77423 6.25111 8.74948 5.99977 8.65487 5.77136C8.56026 5.54296 8.40004 5.34773 8.19448 5.21038C7.98892 5.07303 7.74725 4.99972 7.50002 4.99972C7.1685 4.99972 6.85056 5.13141 6.61614 5.36583C6.38172 5.60026 6.25002 5.9182 6.25002 6.24972ZM13.3334 14.1664V15.8331H1.66669V14.1664C1.66669 14.1664 1.66669 10.8331 7.50002 10.8331C13.3334 10.8331 13.3334 14.1664 13.3334 14.1664ZM11.6667 14.1664C11.55 13.5164 10.5584 12.4997 7.50002 12.4997C4.44169 12.4997 3.39169 13.5914 3.33335 14.1664M13.2917 10.8331C13.8024 11.2303 14.22 11.7346 14.5152 12.3104C14.8103 12.8863 14.9758 13.5198 15 14.1664V15.8331H18.3334V14.1664C18.3334 14.1664 18.3334 11.1414 13.2834 10.8331H13.2917Z" fill="black"/>
</svg>
