<svg width="20" height="20" viewBox="0 0 20 20" fill="none" xmlns="http://www.w3.org/2000/svg">
<path d="M13.5 11C13.3674 11 13.2402 11.0527 13.1464 11.1464C13.0527 11.2402 13 11.3674 13 11.5C13 11.6326 13.0527 11.7598 13.1464 11.8536C13.2402 11.9473 13.3674 12 13.5 12H14.5C14.6326 12 14.7598 11.9473 14.8536 11.8536C14.9473 11.7598 15 11.6326 15 11.5C15 11.3674 14.9473 11.2402 14.8536 11.1464C14.7598 11.0527 14.6326 11 14.5 11H13.5ZM3 4.5C3 4.10218 3.15804 3.72064 3.43934 3.43934C3.72064 3.15804 4.10218 3 4.5 3H14C14.5304 3 15.0391 3.21071 15.4142 3.58579C15.7893 3.96086 16 4.46957 16 5V5.268C16.304 5.44353 16.5565 5.696 16.732 6.00003C16.9076 6.30406 17 6.64894 17 7V15C17 15.5304 16.7893 16.0391 16.4142 16.4142C16.0391 16.7893 15.5304 17 15 17H5.5C4.83696 17 4.20107 16.7366 3.73223 16.2678C3.26339 15.7989 3 15.163 3 14.5V4.5ZM14 4H4.5C4.36739 4 4.24021 4.05268 4.14645 4.14645C4.05268 4.24021 4 4.36739 4 4.5C4 4.63261 4.05268 4.75979 4.14645 4.85355C4.24021 4.94732 4.36739 5 4.5 5H15C15 4.73478 14.8946 4.48043 14.7071 4.29289C14.5196 4.10536 14.2652 4 14 4ZM4.5 6C4.325 6 4.156 5.97 4 5.915V14.5C4 14.8978 4.15804 15.2794 4.43934 15.5607C4.72064 15.842 5.10218 16 5.5 16H15C15.2652 16 15.5196 15.8946 15.7071 15.7071C15.8946 15.5196 16 15.2652 16 15V7C16 6.73478 15.8946 6.48043 15.7071 6.29289C15.5196 6.10536 15.2652 6 15 6H4.5Z" fill="#495057"/>
</svg>
